/* XPM */
static char *_78aec232a7f40e0df71334d7faf23d6xKFoCmodQ0mgfEhG_2[] = {
/* columns rows colors chars-per-pixel */
"128 128 57 1 ",
"  c black",
". c #260300",
"X c #002600",
"o c #252600",
"O c #260026",
"+ c #002326",
"@ c #590600",
"# c #005900",
"$ c #575900",
"% c #590059",
"& c #005359",
"* c #8C0A00",
"= c #BF0D00",
"- c #F21100",
"; c #FF1100",
": c #FF1E0D",
"> c #FF4D40",
", c #FF7D73",
"< c #008C00",
"1 c #01BF00",
"2 c #01F200",
"3 c #01FF00",
"4 c #0EFF0D",
"5 c #40FF40",
"6 c #73FF73",
"7 c #888C00",
"8 c #BABF00",
"9 c #EBF200",
"0 c #F8FF00",
"q c #F8FF0D",
"w c #FAFF40",
"e c #FBFF73",
"r c #8C008C",
"t c #BF00BF",
"y c #F200F2",
"u c magenta",
"i c #FF0DFF",
"p c #FF40FF",
"a c #FF73FF",
"s c #00828C",
"d c #00B2BF",
"f c #01E1F2",
"g c #01EDFF",
"h c #0EEEFF",
"j c #40F2FF",
"k c #73F5FF",
"l c #FFACA6",
"z c #A6FFA6",
"x c #FDFFA6",
"c c #FFA6FF",
"v c #A6F9FF",
"b c #FFDCD9",
"n c #D9FFD9",
"m c #FEFFD9",
"M c #FFD9FF",
"N c #D9FCFF",
"B c white",
/* pixels */
"rrrrttttBBBBBBBBttttrrrrBBBBBBBB****====BBBBBBBB====****77778888BBBBBBBB88887777<<<<1111BBBBBBBB1111<<<<ssssddddBBBBBBBBddddssss",
"rrrrttttBBBBBBBBttttrrrrBBBBBBBB****====BBBBBBBB====****77778888BBBBBBBB88887777<<<<1111BBBBBBBB1111<<<<ssssddddBBBBBBBBddddssss",
"rrrrttttBBBBBBBBttttrrrrBBBBBBBB****====BBBBBBBB====****77778888BBBBBBBB88887777<<<<1111BBBBBBBB1111<<<<ssssddddBBBBBBBBddddssss",
"rrrrttttBBBBBBBBttttrrrrBBBBBBBB****====BBBBBBBB====****77778888BBBBBBBB88887777<<<<1111BBBBBBBB1111<<<<ssssddddBBBBBBBBddddssss",
"ttttrrrrBBBBBBBBrrrrttttBBBBBBBB====****BBBBBBBB****====88887777BBBBBBBB777788881111<<<<BBBBBBBB<<<<1111ddddssssBBBBBBBBssssdddd",
"ttttrrrrBBBBBBBBrrrrttttBBBBBBBB====****BBBBBBBB****====88887777BBBBBBBB777788881111<<<<BBBBBBBB<<<<1111ddddssssBBBBBBBBssssdddd",
"ttttrrrrBBBBBBBBrrrrttttBBBBBBBB====****BBBBBBBB****====88887777BBBBBBBB777788881111<<<<BBBBBBBB<<<<1111ddddssssBBBBBBBBssssdddd",
"ttttrrrrBBBBBBBBrrrrttttBBBBBBBB====****BBBBBBBB****====88887777BBBBBBBB777788881111<<<<BBBBBBBB<<<<1111ddddssssBBBBBBBBssssdddd",
"MMMMBBBBrrrrrrrrBBBBMMMMrrrrrrrrbbbbBBBB********BBBBbbbbmmmmBBBB77777777BBBBmmmmnnnnBBBB<<<<<<<<BBBBnnnnNNNNBBBBssssssssBBBBNNNN",
"MMMMBBBBrrrrrrrrBBBBMMMMrrrrrrrrbbbbBBBB********BBBBbbbbmmmmBBBB77777777BBBBmmmmnnnnBBBB<<<<<<<<BBBBnnnnNNNNBBBBssssssssBBBBNNNN",
"MMMMBBBBrrrrrrrrBBBBMMMMrrrrrrrrbbbbBBBB********BBBBbbbbmmmmBBBB77777777BBBBmmmmnnnnBBBB<<<<<<<<BBBBnnnnNNNNBBBBssssssssBBBBNNNN",
"MMMMBBBBrrrrrrrrBBBBMMMMrrrrrrrrbbbbBBBB********BBBBbbbbmmmmBBBB77777777BBBBmmmmnnnnBBBB<<<<<<<<BBBBnnnnNNNNBBBBssssssssBBBBNNNN",
"BBBBMMMMrrrrrrrrMMMMBBBBrrrrrrrrBBBBbbbb********bbbbBBBBBBBBmmmm77777777mmmmBBBBBBBBnnnn<<<<<<<<nnnnBBBBBBBBNNNNssssssssNNNNBBBB",
"BBBBMMMMrrrrrrrrMMMMBBBBrrrrrrrrBBBBbbbb********bbbbBBBBBBBBmmmm77777777mmmmBBBBBBBBnnnn<<<<<<<<nnnnBBBBBBBBNNNNssssssssNNNNBBBB",
"BBBBMMMMrrrrrrrrMMMMBBBBrrrrrrrrBBBBbbbb********bbbbBBBBBBBBmmmm77777777mmmmBBBBBBBBnnnn<<<<<<<<nnnnBBBBBBBBNNNNssssssssNNNNBBBB",
"BBBBMMMMrrrrrrrrMMMMBBBBrrrrrrrrBBBBbbbb********bbbbBBBBBBBBmmmm77777777mmmmBBBBBBBBnnnn<<<<<<<<nnnnBBBBBBBBNNNNssssssssNNNNBBBB",
"rrrrrrrrMMMMMMMMrrrrrrrrMMMMMMMM********bbbbbbbb********77777777mmmmmmmm77777777<<<<<<<<nnnnnnnn<<<<<<<<ssssssssNNNNNNNNssssssss",
"rrrrrrrrMMMMMMMMrrrrrrrrMMMMMMMM********bbbbbbbb********77777777mmmmmmmm77777777<<<<<<<<nnnnnnnn<<<<<<<<ssssssssNNNNNNNNssssssss",
"rrrrrrrrMMMMMMMMrrrrrrrrMMMMMMMM********bbbbbbbb********77777777mmmmmmmm77777777<<<<<<<<nnnnnnnn<<<<<<<<ssssssssNNNNNNNNssssssss",
"rrrrrrrrMMMMMMMMrrrrrrrrMMMMMMMM********bbbbbbbb********77777777mmmmmmmm77777777<<<<<<<<nnnnnnnn<<<<<<<<ssssssssNNNNNNNNssssssss",
"rrrrrrrrMMMMMMMMrrrrrrrrMMMMMMMM********bbbbbbbb********77777777mmmmmmmm77777777<<<<<<<<nnnnnnnn<<<<<<<<ssssssssNNNNNNNNssssssss",
"rrrrrrrrMMMMMMMMrrrrrrrrMMMMMMMM********bbbbbbbb********77777777mmmmmmmm77777777<<<<<<<<nnnnnnnn<<<<<<<<ssssssssNNNNNNNNssssssss",
"rrrrrrrrMMMMMMMMrrrrrrrrMMMMMMMM********bbbbbbbb********77777777mmmmmmmm77777777<<<<<<<<nnnnnnnn<<<<<<<<ssssssssNNNNNNNNssssssss",
"rrrrrrrrMMMMMMMMrrrrrrrrMMMMMMMM********bbbbbbbb********77777777mmmmmmmm77777777<<<<<<<<nnnnnnnn<<<<<<<<ssssssssNNNNNNNNssssssss",
"MMMMccccrrrrrrrrccccMMMMrrrrrrrrbbbbllll********llllbbbbmmmmxxxx77777777xxxxmmmmnnnnzzzz<<<<<<<<zzzznnnnNNNNvvvvssssssssvvvvNNNN",
"MMMMccccrrrrrrrrccccMMMMrrrrrrrrbbbbllll********llllbbbbmmmmxxxx77777777xxxxmmmmnnnnzzzz<<<<<<<<zzzznnnnNNNNvvvvssssssssvvvvNNNN",
"MMMMccccrrrrrrrrccccMMMMrrrrrrrrbbbbllll********llllbbbbmmmmxxxx77777777xxxxmmmmnnnnzzzz<<<<<<<<zzzznnnnNNNNvvvvssssssssvvvvNNNN",
"MMMMccccrrrrrrrrccccMMMMrrrrrrrrbbbbllll********llllbbbbmmmmxxxx77777777xxxxmmmmnnnnzzzz<<<<<<<<zzzznnnnNNNNvvvvssssssssvvvvNNNN",
"ccccMMMMrrrrrrrrMMMMccccrrrrrrrrllllbbbb********bbbbllllxxxxmmmm77777777mmmmxxxxzzzznnnn<<<<<<<<nnnnzzzzvvvvNNNNssssssssNNNNvvvv",
"ccccMMMMrrrrrrrrMMMMccccrrrrrrrrllllbbbb********bbbbllllxxxxmmmm77777777mmmmxxxxzzzznnnn<<<<<<<<nnnnzzzzvvvvNNNNssssssssNNNNvvvv",
"ccccMMMMrrrrrrrrMMMMccccrrrrrrrrllllbbbb********bbbbllllxxxxmmmm77777777mmmmxxxxzzzznnnn<<<<<<<<nnnnzzzzvvvvNNNNssssssssNNNNvvvv",
"ccccMMMMrrrrrrrrMMMMccccrrrrrrrrllllbbbb********bbbbllllxxxxmmmm77777777mmmmxxxxzzzznnnn<<<<<<<<nnnnzzzzvvvvNNNNssssssssNNNNvvvv",
"%%%%rrrrccccaaaarrrr%%%%aaaacccc@@@@****llll,,,,****@@@@$$$$7777xxxxeeee7777$$$$####<<<<zzzz6666<<<<####&&&&ssssvvvvkkkkssss&&&&",
"%%%%rrrrccccaaaarrrr%%%%aaaacccc@@@@****llll,,,,****@@@@$$$$7777xxxxeeee7777$$$$####<<<<zzzz6666<<<<####&&&&ssssvvvvkkkkssss&&&&",
"%%%%rrrrccccaaaarrrr%%%%aaaacccc@@@@****llll,,,,****@@@@$$$$7777xxxxeeee7777$$$$####<<<<zzzz6666<<<<####&&&&ssssvvvvkkkkssss&&&&",
"%%%%rrrrccccaaaarrrr%%%%aaaacccc@@@@****llll,,,,****@@@@$$$$7777xxxxeeee7777$$$$####<<<<zzzz6666<<<<####&&&&ssssvvvvkkkkssss&&&&",
"rrrr%%%%aaaacccc%%%%rrrrccccaaaa****@@@@,,,,llll@@@@****7777$$$$eeeexxxx$$$$7777<<<<####6666zzzz####<<<<ssss&&&&kkkkvvvv&&&&ssss",
"rrrr%%%%aaaacccc%%%%rrrrccccaaaa****@@@@,,,,llll@@@@****7777$$$$eeeexxxx$$$$7777<<<<####6666zzzz####<<<<ssss&&&&kkkkvvvv&&&&ssss",
"rrrr%%%%aaaacccc%%%%rrrrccccaaaa****@@@@,,,,llll@@@@****7777$$$$eeeexxxx$$$$7777<<<<####6666zzzz####<<<<ssss&&&&kkkkvvvv&&&&ssss",
"rrrr%%%%aaaacccc%%%%rrrrccccaaaa****@@@@,,,,llll@@@@****7777$$$$eeeexxxx$$$$7777<<<<####6666zzzz####<<<<ssss&&&&kkkkvvvv&&&&ssss",
"aaaapppp%%%%%%%%ppppaaaa%%%%%%%%,,,,>>>>@@@@@@@@>>>>,,,,eeeewwww$$$$$$$$wwwweeee66665555########55556666kkkkjjjj&&&&&&&&jjjjkkkk",
"aaaapppp%%%%%%%%ppppaaaa%%%%%%%%,,,,>>>>@@@@@@@@>>>>,,,,eeeewwww$$$$$$$$wwwweeee66665555########55556666kkkkjjjj&&&&&&&&jjjjkkkk",
"aaaapppp%%%%%%%%ppppaaaa%%%%%%%%,,,,>>>>@@@@@@@@>>>>,,,,eeeewwww$$$$$$$$wwwweeee66665555########55556666kkkkjjjj&&&&&&&&jjjjkkkk",
"aaaapppp%%%%%%%%ppppaaaa%%%%%%%%,,,,>>>>@@@@@@@@>>>>,,,,eeeewwww$$$$$$$$wwwweeee66665555########55556666kkkkjjjj&&&&&&&&jjjjkkkk",
"ppppaaaa%%%%%%%%aaaapppp%%%%%%%%>>>>,,,,@@@@@@@@,,,,>>>>wwwweeee$$$$$$$$eeeewwww55556666########66665555jjjjkkkk&&&&&&&&kkkkjjjj",
"ppppaaaa%%%%%%%%aaaapppp%%%%%%%%>>>>,,,,@@@@@@@@,,,,>>>>wwwweeee$$$$$$$$eeeewwww55556666########66665555jjjjkkkk&&&&&&&&kkkkjjjj",
"ppppaaaa%%%%%%%%aaaapppp%%%%%%%%>>>>,,,,@@@@@@@@,,,,>>>>wwwweeee$$$$$$$$eeeewwww55556666########66665555jjjjkkkk&&&&&&&&kkkkjjjj",
"ppppaaaa%%%%%%%%aaaapppp%%%%%%%%>>>>,,,,@@@@@@@@,,,,>>>>wwwweeee$$$$$$$$eeeewwww55556666########66665555jjjjkkkk&&&&&&&&kkkkjjjj",
"%%%%%%%%uuuuiiii%%%%%%%%uuuuuuuu@@@@@@@@;;;;::::@@@@@@@@$$$$$$$$0000qqqq$$$$$$$$########33334444########&&&&&&&&gggghhhh&&&&&&&&",
"%%%%%%%%uuuuiiii%%%%%%%%uuuuuuuu@@@@@@@@;;;;::::@@@@@@@@$$$$$$$$0000qqqq$$$$$$$$########33334444########&&&&&&&&gggghhhh&&&&&&&&",
"%%%%%%%%uuuuiiii%%%%%%%%uuuuuuuu@@@@@@@@;;;;::::@@@@@@@@$$$$$$$$0000qqqq$$$$$$$$########33334444########&&&&&&&&gggghhhh&&&&&&&&",
"%%%%%%%%uuuuiiii%%%%%%%%uuuuuuuu@@@@@@@@;;;;::::@@@@@@@@$$$$$$$$0000qqqq$$$$$$$$########33334444########&&&&&&&&gggghhhh&&&&&&&&",
"%%%%%%%%uuuuuuuu%%%%%%%%uuuuuuuu@@@@@@@@;;;;;;;;@@@@@@@@$$$$$$$$00000000$$$$$$$$########33333333########&&&&&&&&gggggggg&&&&&&&&",
"%%%%%%%%uuuuuuuu%%%%%%%%uuuuuuuu@@@@@@@@;;;;;;;;@@@@@@@@$$$$$$$$00000000$$$$$$$$########33333333########&&&&&&&&gggggggg&&&&&&&&",
"%%%%%%%%uuuuuuuu%%%%%%%%uuuuuuuu@@@@@@@@;;;;;;;;@@@@@@@@$$$$$$$$00000000$$$$$$$$########33333333########&&&&&&&&gggggggg&&&&&&&&",
"%%%%%%%%uuuuuuuu%%%%%%%%uuuuuuuu@@@@@@@@;;;;;;;;@@@@@@@@$$$$$$$$00000000$$$$$$$$########33333333########&&&&&&&&gggggggg&&&&&&&&",
"uuuuuuuu%%%%%%%%uuuuuuuu%%%%%%%%;;;;;;;;@@@@@@@@;;;;;;;;00000000$$$$$$$$0000000033333333########33333333gggggggg&&&&&&&&gggggggg",
"uuuuuuuu%%%%%%%%uuuuuuuu%%%%%%%%;;;;;;;;@@@@@@@@;;;;;;;;00000000$$$$$$$$0000000033333333########33333333gggggggg&&&&&&&&gggggggg",
"uuuuuuuu%%%%%%%%uuuuuuuu%%%%%%%%;;;;;;;;@@@@@@@@;;;;;;;;00000000$$$$$$$$0000000033333333########33333333gggggggg&&&&&&&&gggggggg",
"uuuuuuuu%%%%%%%%uuuuuuuu%%%%%%%%;;;;;;;;@@@@@@@@;;;;;;;;00000000$$$$$$$$0000000033333333########33333333gggggggg&&&&&&&&gggggggg",
"uuuuuuuu%%%%%%%%uuuuuuuu%%%%%%%%;;;;;;;;@@@@@@@@;;;;;;;;00000000$$$$$$$$0000000033333333########33333333gggggggg&&&&&&&&gggggggg",
"uuuuuuuu%%%%%%%%uuuuuuuu%%%%%%%%;;;;;;;;@@@@@@@@;;;;;;;;00000000$$$$$$$$0000000033333333########33333333gggggggg&&&&&&&&gggggggg",
"uuuuuuuu%%%%%%%%uuuuuuuu%%%%%%%%;;;;;;;;@@@@@@@@;;;;;;;;00000000$$$$$$$$0000000033333333########33333333gggggggg&&&&&&&&gggggggg",
"uuuuuuuu%%%%%%%%uuuuuuuu%%%%%%%%;;;;;;;;@@@@@@@@;;;;;;;;00000000$$$$$$$$0000000033333333########33333333gggggggg&&&&&&&&gggggggg",
"OOOO%%%%uuuuuuuu%%%%OOOOuuuuuuuu....@@@@;;;;;;;;@@@@....oooo$$$$00000000$$$$ooooXXXX####33333333####XXXX++++&&&&gggggggg&&&&++++",
"OOOO%%%%uuuuuuuu%%%%OOOOuuuuuuuu....@@@@;;;;;;;;@@@@....oooo$$$$00000000$$$$ooooXXXX####33333333####XXXX++++&&&&gggggggg&&&&++++",
"OOOO%%%%uuuuuuuu%%%%OOOOuuuuuuuu....@@@@;;;;;;;;@@@@....oooo$$$$00000000$$$$ooooXXXX####33333333####XXXX++++&&&&gggggggg&&&&++++",
"OOOO%%%%uuuuuuuu%%%%OOOOuuuuuuuu....@@@@;;;;;;;;@@@@....oooo$$$$00000000$$$$ooooXXXX####33333333####XXXX++++&&&&gggggggg&&&&++++",
"%%%%OOOOuuuuuuuuOOOO%%%%uuuuuuuu@@@@....;;;;;;;;....@@@@$$$$oooo00000000oooo$$$$####XXXX33333333XXXX####&&&&++++gggggggg++++&&&&",
"%%%%OOOOuuuuuuuuOOOO%%%%uuuuuuuu@@@@....;;;;;;;;....@@@@$$$$oooo00000000oooo$$$$####XXXX33333333XXXX####&&&&++++gggggggg++++&&&&",
"%%%%OOOOuuuuuuuuOOOO%%%%uuuuuuuu@@@@....;;;;;;;;....@@@@$$$$oooo00000000oooo$$$$####XXXX33333333XXXX####&&&&++++gggggggg++++&&&&",
"%%%%OOOOuuuuuuuuOOOO%%%%uuuuuuuu@@@@....;;;;;;;;....@@@@$$$$oooo00000000oooo$$$$####XXXX33333333XXXX####&&&&++++gggggggg++++&&&&",
"uuuuyyyyOOOOOOOOyyyyuuuuOOOOOOOO;;;;----........----;;;;00009999oooooooo9999000033332222XXXXXXXX22223333ggggffff++++++++ffffgggg",
"uuuuyyyyOOOOOOOOyyyyuuuuOOOOOOOO;;;;----........----;;;;00009999oooooooo9999000033332222XXXXXXXX22223333ggggffff++++++++ffffgggg",
"uuuuyyyyOOOOOOOOyyyyuuuuOOOOOOOO;;;;----........----;;;;00009999oooooooo9999000033332222XXXXXXXX22223333ggggffff++++++++ffffgggg",
"uuuuyyyyOOOOOOOOyyyyuuuuOOOOOOOO;;;;----........----;;;;00009999oooooooo9999000033332222XXXXXXXX22223333ggggffff++++++++ffffgggg",
"yyyyuuuuOOOOOOOOuuuuyyyyOOOOOOOO----;;;;........;;;;----99990000oooooooo0000999922223333XXXXXXXX33332222ffffgggg++++++++ggggffff",
"yyyyuuuuOOOOOOOOuuuuyyyyOOOOOOOO----;;;;........;;;;----99990000oooooooo0000999922223333XXXXXXXX33332222ffffgggg++++++++ggggffff",
"yyyyuuuuOOOOOOOOuuuuyyyyOOOOOOOO----;;;;........;;;;----99990000oooooooo0000999922223333XXXXXXXX33332222ffffgggg++++++++ggggffff",
"yyyyuuuuOOOOOOOOuuuuyyyyOOOOOOOO----;;;;........;;;;----99990000oooooooo0000999922223333XXXXXXXX33332222ffffgggg++++++++ggggffff",
"OOOOOOOOyyyyttttOOOOOOOOttttyyyy........----====........oooooooo99998888ooooooooXXXXXXXX22221111XXXXXXXX++++++++ffffdddd++++++++",
"OOOOOOOOyyyyttttOOOOOOOOttttyyyy........----====........oooooooo99998888ooooooooXXXXXXXX22221111XXXXXXXX++++++++ffffdddd++++++++",
"OOOOOOOOyyyyttttOOOOOOOOttttyyyy........----====........oooooooo99998888ooooooooXXXXXXXX22221111XXXXXXXX++++++++ffffdddd++++++++",
"OOOOOOOOyyyyttttOOOOOOOOttttyyyy........----====........oooooooo99998888ooooooooXXXXXXXX22221111XXXXXXXX++++++++ffffdddd++++++++",
"OOOOOOOOttttyyyyOOOOOOOOyyyytttt........====----........oooooooo88889999ooooooooXXXXXXXX11112222XXXXXXXX++++++++ddddffff++++++++",
"OOOOOOOOttttyyyyOOOOOOOOyyyytttt........====----........oooooooo88889999ooooooooXXXXXXXX11112222XXXXXXXX++++++++ddddffff++++++++",
"OOOOOOOOttttyyyyOOOOOOOOyyyytttt........====----........oooooooo88889999ooooooooXXXXXXXX11112222XXXXXXXX++++++++ddddffff++++++++",
"OOOOOOOOttttyyyyOOOOOOOOyyyytttt........====----........oooooooo88889999ooooooooXXXXXXXX11112222XXXXXXXX++++++++ddddffff++++++++",
"ttttrrrrOOOOOOOOrrrrttttOOOOOOOO====****........****====88887777oooooooo777788881111<<<<XXXXXXXX<<<<1111ddddssss++++++++ssssdddd",
"ttttrrrrOOOOOOOOrrrrttttOOOOOOOO====****........****====88887777oooooooo777788881111<<<<XXXXXXXX<<<<1111ddddssss++++++++ssssdddd",
"ttttrrrrOOOOOOOOrrrrttttOOOOOOOO====****........****====88887777oooooooo777788881111<<<<XXXXXXXX<<<<1111ddddssss++++++++ssssdddd",
"ttttrrrrOOOOOOOOrrrrttttOOOOOOOO====****........****====88887777oooooooo777788881111<<<<XXXXXXXX<<<<1111ddddssss++++++++ssssdddd",
"rrrrttttOOOOOOOOttttrrrrOOOOOOOO****====........====****77778888oooooooo88887777<<<<1111XXXXXXXX1111<<<<ssssdddd++++++++ddddssss",
"rrrrttttOOOOOOOOttttrrrrOOOOOOOO****====........====****77778888oooooooo88887777<<<<1111XXXXXXXX1111<<<<ssssdddd++++++++ddddssss",
"rrrrttttOOOOOOOOttttrrrrOOOOOOOO****====........====****77778888oooooooo88887777<<<<1111XXXXXXXX1111<<<<ssssdddd++++++++ddddssss",
"rrrrttttOOOOOOOOttttrrrrOOOOOOOO****====........====****77778888oooooooo88887777<<<<1111XXXXXXXX1111<<<<ssssdddd++++++++ddddssss",
"    OOOOrrrr%%%%OOOO    %%%%rrrr    ....****@@@@....        oooo7777$$$$oooo        XXXX<<<<####XXXX        ++++ssss&&&&++++    ",
"    OOOOrrrr%%%%OOOO    %%%%rrrr    ....****@@@@....        oooo7777$$$$oooo        XXXX<<<<####XXXX        ++++ssss&&&&++++    ",
"    OOOOrrrr%%%%OOOO    %%%%rrrr    ....****@@@@....        oooo7777$$$$oooo        XXXX<<<<####XXXX        ++++ssss&&&&++++    ",
"    OOOOrrrr%%%%OOOO    %%%%rrrr    ....****@@@@....        oooo7777$$$$oooo        XXXX<<<<####XXXX        ++++ssss&&&&++++    ",
"OOOO    %%%%rrrr    OOOOrrrr%%%%....    @@@@****    ....oooo    $$$$7777    ooooXXXX    ####<<<<    XXXX++++    &&&&ssss    ++++",
"OOOO    %%%%rrrr    OOOOrrrr%%%%....    @@@@****    ....oooo    $$$$7777    ooooXXXX    ####<<<<    XXXX++++    &&&&ssss    ++++",
"OOOO    %%%%rrrr    OOOOrrrr%%%%....    @@@@****    ....oooo    $$$$7777    ooooXXXX    ####<<<<    XXXX++++    &&&&ssss    ++++",
"OOOO    %%%%rrrr    OOOOrrrr%%%%....    @@@@****    ....oooo    $$$$7777    ooooXXXX    ####<<<<    XXXX++++    &&&&ssss    ++++",
"%%%%OOOO        OOOO%%%%        @@@@....        ....@@@@$$$$oooo        oooo$$$$####XXXX        XXXX####&&&&++++        ++++&&&&",
"%%%%OOOO        OOOO%%%%        @@@@....        ....@@@@$$$$oooo        oooo$$$$####XXXX        XXXX####&&&&++++        ++++&&&&",
"%%%%OOOO        OOOO%%%%        @@@@....        ....@@@@$$$$oooo        oooo$$$$####XXXX        XXXX####&&&&++++        ++++&&&&",
"%%%%OOOO        OOOO%%%%        @@@@....        ....@@@@$$$$oooo        oooo$$$$####XXXX        XXXX####&&&&++++        ++++&&&&",
"OOOO%%%%        %%%%OOOO        ....@@@@        @@@@....oooo$$$$        $$$$ooooXXXX####        ####XXXX++++&&&&        &&&&++++",
"OOOO%%%%        %%%%OOOO        ....@@@@        @@@@....oooo$$$$        $$$$ooooXXXX####        ####XXXX++++&&&&        &&&&++++",
"OOOO%%%%        %%%%OOOO        ....@@@@        @@@@....oooo$$$$        $$$$ooooXXXX####        ####XXXX++++&&&&        &&&&++++",
"OOOO%%%%        %%%%OOOO        ....@@@@        @@@@....oooo$$$$        $$$$ooooXXXX####        ####XXXX++++&&&&        &&&&++++",
"        OOOOOOOO        OOOOOOOO        ........                oooooooo                XXXXXXXX                ++++++++        ",
"        OOOOOOOO        OOOOOOOO        ........                oooooooo                XXXXXXXX                ++++++++        ",
"        OOOOOOOO        OOOOOOOO        ........                oooooooo                XXXXXXXX                ++++++++        ",
"        OOOOOOOO        OOOOOOOO        ........                oooooooo                XXXXXXXX                ++++++++        ",
"        OOOOOOOO        OOOOOOOO        ........                oooooooo                XXXXXXXX                ++++++++        ",
"        OOOOOOOO        OOOOOOOO        ........                oooooooo                XXXXXXXX                ++++++++        ",
"        OOOOOOOO        OOOOOOOO        ........                oooooooo                XXXXXXXX                ++++++++        ",
"        OOOOOOOO        OOOOOOOO        ........                oooooooo                XXXXXXXX                ++++++++        ",
"OOOOOOOO        OOOOOOOO        ........        ........oooooooo        ooooooooXXXXXXXX        XXXXXXXX++++++++        ++++++++",
"OOOOOOOO        OOOOOOOO        ........        ........oooooooo        ooooooooXXXXXXXX        XXXXXXXX++++++++        ++++++++",
"OOOOOOOO        OOOOOOOO        ........        ........oooooooo        ooooooooXXXXXXXX        XXXXXXXX++++++++        ++++++++",
"OOOOOOOO        OOOOOOOO        ........        ........oooooooo        ooooooooXXXXXXXX        XXXXXXXX++++++++        ++++++++",
"OOOOOOOO        OOOOOOOO        ........        ........oooooooo        ooooooooXXXXXXXX        XXXXXXXX++++++++        ++++++++",
"OOOOOOOO        OOOOOOOO        ........        ........oooooooo        ooooooooXXXXXXXX        XXXXXXXX++++++++        ++++++++",
"OOOOOOOO        OOOOOOOO        ........        ........oooooooo        ooooooooXXXXXXXX        XXXXXXXX++++++++        ++++++++",
"OOOOOOOO        OOOOOOOO        ........        ........oooooooo        ooooooooXXXXXXXX        XXXXXXXX++++++++        ++++++++"
};
