/* XPM */
static char *_78aec232a7f40e0df71334d7faf23d6xKFoCmodQ0mgfEhG_6[] = {
/* columns rows colors chars-per-pixel */
"128 128 56 1 ",
"  c black",
". c #260300",
"X c #002600",
"o c #252600",
"O c #260026",
"+ c #002326",
"@ c #590600",
"# c #005900",
"$ c #575900",
"% c #590059",
"& c #005359",
"* c #8C0A00",
"= c #BF0D00",
"- c #F21100",
"; c #FF1100",
": c #FF1E0D",
"> c #FF4D40",
", c #FF7D73",
"< c #008C00",
"1 c #01BF00",
"2 c #01F200",
"3 c #01FF00",
"4 c #0EFF0D",
"5 c #40FF40",
"6 c #73FF73",
"7 c #888C00",
"8 c #BABF00",
"9 c #EBF200",
"0 c #F8FF00",
"q c #F8FF0D",
"w c #FAFF40",
"e c #FBFF73",
"r c #8C008C",
"t c #BF00BF",
"y c #F200F2",
"u c magenta",
"i c #FF40FF",
"p c #FF73FF",
"a c #00828C",
"s c #00B2BF",
"d c #01E1F2",
"f c #01EDFF",
"g c #0EEEFF",
"h c #40F2FF",
"j c #73F5FF",
"k c #FFACA6",
"l c #A6FFA6",
"z c #FDFFA6",
"x c #FFA6FF",
"c c #A6F9FF",
"v c #FFDCD9",
"b c #D9FFD9",
"n c #FEFFD9",
"m c #FFD9FF",
"M c #D9FCFF",
"N c white",
/* pixels */
"NNNNNNNN88887777<<<<1111NNNNNNNN1111<<<<aaaassssNNNNNNNNssssaaaarrrrttttNNNNNNNNttttrrrrNNNNNNNN****====NNNNNNNN====****NNNNNNNN",
"NNNNNNNN88887777<<<<1111NNNNNNNN1111<<<<aaaassssNNNNNNNNssssaaaarrrrttttNNNNNNNNttttrrrrNNNNNNNN****====NNNNNNNN====****NNNNNNNN",
"NNNNNNNN88887777<<<<1111NNNNNNNN1111<<<<aaaassssNNNNNNNNssssaaaarrrrttttNNNNNNNNttttrrrrNNNNNNNN****====NNNNNNNN====****NNNNNNNN",
"NNNNNNNN88887777<<<<1111NNNNNNNN1111<<<<aaaassssNNNNNNNNssssaaaarrrrttttNNNNNNNNttttrrrrNNNNNNNN****====NNNNNNNN====****NNNNNNNN",
"NNNNNNNN777788881111<<<<NNNNNNNN<<<<1111ssssaaaaNNNNNNNNaaaassssttttrrrrNNNNNNNNrrrrttttNNNNNNNN====****NNNNNNNN****====NNNNNNNN",
"NNNNNNNN777788881111<<<<NNNNNNNN<<<<1111ssssaaaaNNNNNNNNaaaassssttttrrrrNNNNNNNNrrrrttttNNNNNNNN====****NNNNNNNN****====NNNNNNNN",
"NNNNNNNN777788881111<<<<NNNNNNNN<<<<1111ssssaaaaNNNNNNNNaaaassssttttrrrrNNNNNNNNrrrrttttNNNNNNNN====****NNNNNNNN****====NNNNNNNN",
"NNNNNNNN777788881111<<<<NNNNNNNN<<<<1111ssssaaaaNNNNNNNNaaaassssttttrrrrNNNNNNNNrrrrttttNNNNNNNN====****NNNNNNNN****====NNNNNNNN",
"77777777NNNNnnnnbbbbNNNN<<<<<<<<NNNNbbbbMMMMNNNNaaaaaaaaNNNNMMMMmmmmNNNNrrrrrrrrNNNNmmmmrrrrrrrrvvvvNNNN********NNNNvvvvrrrrrrrr",
"77777777NNNNnnnnbbbbNNNN<<<<<<<<NNNNbbbbMMMMNNNNaaaaaaaaNNNNMMMMmmmmNNNNrrrrrrrrNNNNmmmmrrrrrrrrvvvvNNNN********NNNNvvvvrrrrrrrr",
"77777777NNNNnnnnbbbbNNNN<<<<<<<<NNNNbbbbMMMMNNNNaaaaaaaaNNNNMMMMmmmmNNNNrrrrrrrrNNNNmmmmrrrrrrrrvvvvNNNN********NNNNvvvvrrrrrrrr",
"77777777NNNNnnnnbbbbNNNN<<<<<<<<NNNNbbbbMMMMNNNNaaaaaaaaNNNNMMMMmmmmNNNNrrrrrrrrNNNNmmmmrrrrrrrrvvvvNNNN********NNNNvvvvrrrrrrrr",
"77777777nnnnNNNNNNNNbbbb<<<<<<<<bbbbNNNNNNNNMMMMaaaaaaaaMMMMNNNNNNNNmmmmrrrrrrrrmmmmNNNNrrrrrrrrNNNNvvvv********vvvvNNNNrrrrrrrr",
"77777777nnnnNNNNNNNNbbbb<<<<<<<<bbbbNNNNNNNNMMMMaaaaaaaaMMMMNNNNNNNNmmmmrrrrrrrrmmmmNNNNrrrrrrrrNNNNvvvv********vvvvNNNNrrrrrrrr",
"77777777nnnnNNNNNNNNbbbb<<<<<<<<bbbbNNNNNNNNMMMMaaaaaaaaMMMMNNNNNNNNmmmmrrrrrrrrmmmmNNNNrrrrrrrrNNNNvvvv********vvvvNNNNrrrrrrrr",
"77777777nnnnNNNNNNNNbbbb<<<<<<<<bbbbNNNNNNNNMMMMaaaaaaaaMMMMNNNNNNNNmmmmrrrrrrrrmmmmNNNNrrrrrrrrNNNNvvvv********vvvvNNNNrrrrrrrr",
"nnnnnnnn77777777<<<<<<<<bbbbbbbb<<<<<<<<aaaaaaaaMMMMMMMMaaaaaaaarrrrrrrrmmmmmmmmrrrrrrrrmmmmmmmm********vvvvvvvv********mmmmmmmm",
"nnnnnnnn77777777<<<<<<<<bbbbbbbb<<<<<<<<aaaaaaaaMMMMMMMMaaaaaaaarrrrrrrrmmmmmmmmrrrrrrrrmmmmmmmm********vvvvvvvv********mmmmmmmm",
"nnnnnnnn77777777<<<<<<<<bbbbbbbb<<<<<<<<aaaaaaaaMMMMMMMMaaaaaaaarrrrrrrrmmmmmmmmrrrrrrrrmmmmmmmm********vvvvvvvv********mmmmmmmm",
"nnnnnnnn77777777<<<<<<<<bbbbbbbb<<<<<<<<aaaaaaaaMMMMMMMMaaaaaaaarrrrrrrrmmmmmmmmrrrrrrrrmmmmmmmm********vvvvvvvv********mmmmmmmm",
"nnnnnnnn77777777<<<<<<<<bbbbbbbb<<<<<<<<aaaaaaaaMMMMMMMMaaaaaaaarrrrrrrrmmmmmmmmrrrrrrrrmmmmmmmm********vvvvvvvv********mmmmmmmm",
"nnnnnnnn77777777<<<<<<<<bbbbbbbb<<<<<<<<aaaaaaaaMMMMMMMMaaaaaaaarrrrrrrrmmmmmmmmrrrrrrrrmmmmmmmm********vvvvvvvv********mmmmmmmm",
"nnnnnnnn77777777<<<<<<<<bbbbbbbb<<<<<<<<aaaaaaaaMMMMMMMMaaaaaaaarrrrrrrrmmmmmmmmrrrrrrrrmmmmmmmm********vvvvvvvv********mmmmmmmm",
"nnnnnnnn77777777<<<<<<<<bbbbbbbb<<<<<<<<aaaaaaaaMMMMMMMMaaaaaaaarrrrrrrrmmmmmmmmrrrrrrrrmmmmmmmm********vvvvvvvv********mmmmmmmm",
"77777777zzzznnnnbbbbllll<<<<<<<<llllbbbbMMMMccccaaaaaaaaccccMMMMmmmmxxxxrrrrrrrrxxxxmmmmrrrrrrrrvvvvkkkk********kkkkvvvvrrrrrrrr",
"77777777zzzznnnnbbbbllll<<<<<<<<llllbbbbMMMMccccaaaaaaaaccccMMMMmmmmxxxxrrrrrrrrxxxxmmmmrrrrrrrrvvvvkkkk********kkkkvvvvrrrrrrrr",
"77777777zzzznnnnbbbbllll<<<<<<<<llllbbbbMMMMccccaaaaaaaaccccMMMMmmmmxxxxrrrrrrrrxxxxmmmmrrrrrrrrvvvvkkkk********kkkkvvvvrrrrrrrr",
"77777777zzzznnnnbbbbllll<<<<<<<<llllbbbbMMMMccccaaaaaaaaccccMMMMmmmmxxxxrrrrrrrrxxxxmmmmrrrrrrrrvvvvkkkk********kkkkvvvvrrrrrrrr",
"77777777nnnnzzzzllllbbbb<<<<<<<<bbbbllllccccMMMMaaaaaaaaMMMMccccxxxxmmmmrrrrrrrrmmmmxxxxrrrrrrrrkkkkvvvv********vvvvkkkkrrrrrrrr",
"77777777nnnnzzzzllllbbbb<<<<<<<<bbbbllllccccMMMMaaaaaaaaMMMMccccxxxxmmmmrrrrrrrrmmmmxxxxrrrrrrrrkkkkvvvv********vvvvkkkkrrrrrrrr",
"77777777nnnnzzzzllllbbbb<<<<<<<<bbbbllllccccMMMMaaaaaaaaMMMMccccxxxxmmmmrrrrrrrrmmmmxxxxrrrrrrrrkkkkvvvv********vvvvkkkkrrrrrrrr",
"77777777nnnnzzzzllllbbbb<<<<<<<<bbbbllllccccMMMMaaaaaaaaMMMMccccxxxxmmmmrrrrrrrrmmmmxxxxrrrrrrrrkkkkvvvv********vvvvkkkkrrrrrrrr",
"zzzzeeee7777$$$$####<<<<llll6666<<<<####&&&&aaaaccccjjjjaaaa&&&&%%%%rrrrxxxxpppprrrr%%%%ppppxxxx@@@@****kkkk,,,,****@@@@ppppxxxx",
"zzzzeeee7777$$$$####<<<<llll6666<<<<####&&&&aaaaccccjjjjaaaa&&&&%%%%rrrrxxxxpppprrrr%%%%ppppxxxx@@@@****kkkk,,,,****@@@@ppppxxxx",
"zzzzeeee7777$$$$####<<<<llll6666<<<<####&&&&aaaaccccjjjjaaaa&&&&%%%%rrrrxxxxpppprrrr%%%%ppppxxxx@@@@****kkkk,,,,****@@@@ppppxxxx",
"zzzzeeee7777$$$$####<<<<llll6666<<<<####&&&&aaaaccccjjjjaaaa&&&&%%%%rrrrxxxxpppprrrr%%%%ppppxxxx@@@@****kkkk,,,,****@@@@ppppxxxx",
"eeeezzzz$$$$7777<<<<####6666llll####<<<<aaaa&&&&jjjjcccc&&&&aaaarrrr%%%%ppppxxxx%%%%rrrrxxxxpppp****@@@@,,,,kkkk@@@@****xxxxpppp",
"eeeezzzz$$$$7777<<<<####6666llll####<<<<aaaa&&&&jjjjcccc&&&&aaaarrrr%%%%ppppxxxx%%%%rrrrxxxxpppp****@@@@,,,,kkkk@@@@****xxxxpppp",
"eeeezzzz$$$$7777<<<<####6666llll####<<<<aaaa&&&&jjjjcccc&&&&aaaarrrr%%%%ppppxxxx%%%%rrrrxxxxpppp****@@@@,,,,kkkk@@@@****xxxxpppp",
"eeeezzzz$$$$7777<<<<####6666llll####<<<<aaaa&&&&jjjjcccc&&&&aaaarrrr%%%%ppppxxxx%%%%rrrrxxxxpppp****@@@@,,,,kkkk@@@@****xxxxpppp",
"$$$$$$$$wwwweeee66665555########55556666jjjjhhhh&&&&&&&&hhhhjjjjppppiiii%%%%%%%%iiiipppp%%%%%%%%,,,,>>>>@@@@@@@@>>>>,,,,%%%%%%%%",
"$$$$$$$$wwwweeee66665555########55556666jjjjhhhh&&&&&&&&hhhhjjjjppppiiii%%%%%%%%iiiipppp%%%%%%%%,,,,>>>>@@@@@@@@>>>>,,,,%%%%%%%%",
"$$$$$$$$wwwweeee66665555########55556666jjjjhhhh&&&&&&&&hhhhjjjjppppiiii%%%%%%%%iiiipppp%%%%%%%%,,,,>>>>@@@@@@@@>>>>,,,,%%%%%%%%",
"$$$$$$$$wwwweeee66665555########55556666jjjjhhhh&&&&&&&&hhhhjjjjppppiiii%%%%%%%%iiiipppp%%%%%%%%,,,,>>>>@@@@@@@@>>>>,,,,%%%%%%%%",
"$$$$$$$$eeeewwww55556666########66665555hhhhjjjj&&&&&&&&jjjjhhhhiiiipppp%%%%%%%%ppppiiii%%%%%%%%>>>>,,,,@@@@@@@@,,,,>>>>%%%%%%%%",
"$$$$$$$$eeeewwww55556666########66665555hhhhjjjj&&&&&&&&jjjjhhhhiiiipppp%%%%%%%%ppppiiii%%%%%%%%>>>>,,,,@@@@@@@@,,,,>>>>%%%%%%%%",
"$$$$$$$$eeeewwww55556666########66665555hhhhjjjj&&&&&&&&jjjjhhhhiiiipppp%%%%%%%%ppppiiii%%%%%%%%>>>>,,,,@@@@@@@@,,,,>>>>%%%%%%%%",
"$$$$$$$$eeeewwww55556666########66665555hhhhjjjj&&&&&&&&jjjjhhhhiiiipppp%%%%%%%%ppppiiii%%%%%%%%>>>>,,,,@@@@@@@@,,,,>>>>%%%%%%%%",
"0000qqqq$$$$$$$$########33334444########&&&&&&&&ffffgggg&&&&&&&&%%%%%%%%uuuuuuuu%%%%%%%%uuuuuuuu@@@@@@@@;;;;::::@@@@@@@@uuuuuuuu",
"0000qqqq$$$$$$$$########33334444########&&&&&&&&ffffgggg&&&&&&&&%%%%%%%%uuuuuuuu%%%%%%%%uuuuuuuu@@@@@@@@;;;;::::@@@@@@@@uuuuuuuu",
"0000qqqq$$$$$$$$########33334444########&&&&&&&&ffffgggg&&&&&&&&%%%%%%%%uuuuuuuu%%%%%%%%uuuuuuuu@@@@@@@@;;;;::::@@@@@@@@uuuuuuuu",
"0000qqqq$$$$$$$$########33334444########&&&&&&&&ffffgggg&&&&&&&&%%%%%%%%uuuuuuuu%%%%%%%%uuuuuuuu@@@@@@@@;;;;::::@@@@@@@@uuuuuuuu",
"00000000$$$$$$$$########33333333########&&&&&&&&ffffffff&&&&&&&&%%%%%%%%uuuuuuuu%%%%%%%%uuuuuuuu@@@@@@@@;;;;;;;;@@@@@@@@uuuuuuuu",
"00000000$$$$$$$$########33333333########&&&&&&&&ffffffff&&&&&&&&%%%%%%%%uuuuuuuu%%%%%%%%uuuuuuuu@@@@@@@@;;;;;;;;@@@@@@@@uuuuuuuu",
"00000000$$$$$$$$########33333333########&&&&&&&&ffffffff&&&&&&&&%%%%%%%%uuuuuuuu%%%%%%%%uuuuuuuu@@@@@@@@;;;;;;;;@@@@@@@@uuuuuuuu",
"00000000$$$$$$$$########33333333########&&&&&&&&ffffffff&&&&&&&&%%%%%%%%uuuuuuuu%%%%%%%%uuuuuuuu@@@@@@@@;;;;;;;;@@@@@@@@uuuuuuuu",
"$$$$$$$$0000000033333333########33333333ffffffff&&&&&&&&ffffffffuuuuuuuu%%%%%%%%uuuuuuuu%%%%%%%%;;;;;;;;@@@@@@@@;;;;;;;;%%%%%%%%",
"$$$$$$$$0000000033333333########33333333ffffffff&&&&&&&&ffffffffuuuuuuuu%%%%%%%%uuuuuuuu%%%%%%%%;;;;;;;;@@@@@@@@;;;;;;;;%%%%%%%%",
"$$$$$$$$0000000033333333########33333333ffffffff&&&&&&&&ffffffffuuuuuuuu%%%%%%%%uuuuuuuu%%%%%%%%;;;;;;;;@@@@@@@@;;;;;;;;%%%%%%%%",
"$$$$$$$$0000000033333333########33333333ffffffff&&&&&&&&ffffffffuuuuuuuu%%%%%%%%uuuuuuuu%%%%%%%%;;;;;;;;@@@@@@@@;;;;;;;;%%%%%%%%",
"$$$$$$$$0000000033333333########33333333ffffffff&&&&&&&&ffffffffuuuuuuuu%%%%%%%%uuuuuuuu%%%%%%%%;;;;;;;;@@@@@@@@;;;;;;;;%%%%%%%%",
"$$$$$$$$0000000033333333########33333333ffffffff&&&&&&&&ffffffffuuuuuuuu%%%%%%%%uuuuuuuu%%%%%%%%;;;;;;;;@@@@@@@@;;;;;;;;%%%%%%%%",
"$$$$$$$$0000000033333333########33333333ffffffff&&&&&&&&ffffffffuuuuuuuu%%%%%%%%uuuuuuuu%%%%%%%%;;;;;;;;@@@@@@@@;;;;;;;;%%%%%%%%",
"$$$$$$$$0000000033333333########33333333ffffffff&&&&&&&&ffffffffuuuuuuuu%%%%%%%%uuuuuuuu%%%%%%%%;;;;;;;;@@@@@@@@;;;;;;;;%%%%%%%%",
"00000000$$$$ooooXXXX####33333333####XXXX++++&&&&ffffffff&&&&++++OOOO%%%%uuuuuuuu%%%%OOOOuuuuuuuu....@@@@;;;;;;;;@@@@....uuuuuuuu",
"00000000$$$$ooooXXXX####33333333####XXXX++++&&&&ffffffff&&&&++++OOOO%%%%uuuuuuuu%%%%OOOOuuuuuuuu....@@@@;;;;;;;;@@@@....uuuuuuuu",
"00000000$$$$ooooXXXX####33333333####XXXX++++&&&&ffffffff&&&&++++OOOO%%%%uuuuuuuu%%%%OOOOuuuuuuuu....@@@@;;;;;;;;@@@@....uuuuuuuu",
"00000000$$$$ooooXXXX####33333333####XXXX++++&&&&ffffffff&&&&++++OOOO%%%%uuuuuuuu%%%%OOOOuuuuuuuu....@@@@;;;;;;;;@@@@....uuuuuuuu",
"00000000oooo$$$$####XXXX33333333XXXX####&&&&++++ffffffff++++&&&&%%%%OOOOuuuuuuuuOOOO%%%%uuuuuuuu@@@@....;;;;;;;;....@@@@uuuuuuuu",
"00000000oooo$$$$####XXXX33333333XXXX####&&&&++++ffffffff++++&&&&%%%%OOOOuuuuuuuuOOOO%%%%uuuuuuuu@@@@....;;;;;;;;....@@@@uuuuuuuu",
"00000000oooo$$$$####XXXX33333333XXXX####&&&&++++ffffffff++++&&&&%%%%OOOOuuuuuuuuOOOO%%%%uuuuuuuu@@@@....;;;;;;;;....@@@@uuuuuuuu",
"00000000oooo$$$$####XXXX33333333XXXX####&&&&++++ffffffff++++&&&&%%%%OOOOuuuuuuuuOOOO%%%%uuuuuuuu@@@@....;;;;;;;;....@@@@uuuuuuuu",
"oooooooo9999000033332222XXXXXXXX22223333ffffdddd++++++++ddddffffuuuuyyyyOOOOOOOOyyyyuuuuOOOOOOOO;;;;----........----;;;;OOOOOOOO",
"oooooooo9999000033332222XXXXXXXX22223333ffffdddd++++++++ddddffffuuuuyyyyOOOOOOOOyyyyuuuuOOOOOOOO;;;;----........----;;;;OOOOOOOO",
"oooooooo9999000033332222XXXXXXXX22223333ffffdddd++++++++ddddffffuuuuyyyyOOOOOOOOyyyyuuuuOOOOOOOO;;;;----........----;;;;OOOOOOOO",
"oooooooo9999000033332222XXXXXXXX22223333ffffdddd++++++++ddddffffuuuuyyyyOOOOOOOOyyyyuuuuOOOOOOOO;;;;----........----;;;;OOOOOOOO",
"oooooooo0000999922223333XXXXXXXX33332222ddddffff++++++++ffffddddyyyyuuuuOOOOOOOOuuuuyyyyOOOOOOOO----;;;;........;;;;----OOOOOOOO",
"oooooooo0000999922223333XXXXXXXX33332222ddddffff++++++++ffffddddyyyyuuuuOOOOOOOOuuuuyyyyOOOOOOOO----;;;;........;;;;----OOOOOOOO",
"oooooooo0000999922223333XXXXXXXX33332222ddddffff++++++++ffffddddyyyyuuuuOOOOOOOOuuuuyyyyOOOOOOOO----;;;;........;;;;----OOOOOOOO",
"oooooooo0000999922223333XXXXXXXX33332222ddddffff++++++++ffffddddyyyyuuuuOOOOOOOOuuuuyyyyOOOOOOOO----;;;;........;;;;----OOOOOOOO",
"99998888ooooooooXXXXXXXX22221111XXXXXXXX++++++++ddddssss++++++++OOOOOOOOyyyyttttOOOOOOOOttttyyyy........----====........ttttyyyy",
"99998888ooooooooXXXXXXXX22221111XXXXXXXX++++++++ddddssss++++++++OOOOOOOOyyyyttttOOOOOOOOttttyyyy........----====........ttttyyyy",
"99998888ooooooooXXXXXXXX22221111XXXXXXXX++++++++ddddssss++++++++OOOOOOOOyyyyttttOOOOOOOOttttyyyy........----====........ttttyyyy",
"99998888ooooooooXXXXXXXX22221111XXXXXXXX++++++++ddddssss++++++++OOOOOOOOyyyyttttOOOOOOOOttttyyyy........----====........ttttyyyy",
"88889999ooooooooXXXXXXXX11112222XXXXXXXX++++++++ssssdddd++++++++OOOOOOOOttttyyyyOOOOOOOOyyyytttt........====----........yyyytttt",
"88889999ooooooooXXXXXXXX11112222XXXXXXXX++++++++ssssdddd++++++++OOOOOOOOttttyyyyOOOOOOOOyyyytttt........====----........yyyytttt",
"88889999ooooooooXXXXXXXX11112222XXXXXXXX++++++++ssssdddd++++++++OOOOOOOOttttyyyyOOOOOOOOyyyytttt........====----........yyyytttt",
"88889999ooooooooXXXXXXXX11112222XXXXXXXX++++++++ssssdddd++++++++OOOOOOOOttttyyyyOOOOOOOOyyyytttt........====----........yyyytttt",
"oooooooo777788881111<<<<XXXXXXXX<<<<1111ssssaaaa++++++++aaaassssttttrrrrOOOOOOOOrrrrttttOOOOOOOO====****........****====OOOOOOOO",
"oooooooo777788881111<<<<XXXXXXXX<<<<1111ssssaaaa++++++++aaaassssttttrrrrOOOOOOOOrrrrttttOOOOOOOO====****........****====OOOOOOOO",
"oooooooo777788881111<<<<XXXXXXXX<<<<1111ssssaaaa++++++++aaaassssttttrrrrOOOOOOOOrrrrttttOOOOOOOO====****........****====OOOOOOOO",
"oooooooo777788881111<<<<XXXXXXXX<<<<1111ssssaaaa++++++++aaaassssttttrrrrOOOOOOOOrrrrttttOOOOOOOO====****........****====OOOOOOOO",
"oooooooo88887777<<<<1111XXXXXXXX1111<<<<aaaassss++++++++ssssaaaarrrrttttOOOOOOOOttttrrrrOOOOOOOO****====........====****OOOOOOOO",
"oooooooo88887777<<<<1111XXXXXXXX1111<<<<aaaassss++++++++ssssaaaarrrrttttOOOOOOOOttttrrrrOOOOOOOO****====........====****OOOOOOOO",
"oooooooo88887777<<<<1111XXXXXXXX1111<<<<aaaassss++++++++ssssaaaarrrrttttOOOOOOOOttttrrrrOOOOOOOO****====........====****OOOOOOOO",
"oooooooo88887777<<<<1111XXXXXXXX1111<<<<aaaassss++++++++ssssaaaarrrrttttOOOOOOOOttttrrrrOOOOOOOO****====........====****OOOOOOOO",
"7777$$$$oooo        XXXX<<<<####XXXX        ++++aaaa&&&&++++        OOOOrrrr%%%%OOOO    %%%%rrrr    ....****@@@@....    %%%%rrrr",
"7777$$$$oooo        XXXX<<<<####XXXX        ++++aaaa&&&&++++        OOOOrrrr%%%%OOOO    %%%%rrrr    ....****@@@@....    %%%%rrrr",
"7777$$$$oooo        XXXX<<<<####XXXX        ++++aaaa&&&&++++        OOOOrrrr%%%%OOOO    %%%%rrrr    ....****@@@@....    %%%%rrrr",
"7777$$$$oooo        XXXX<<<<####XXXX        ++++aaaa&&&&++++        OOOOrrrr%%%%OOOO    %%%%rrrr    ....****@@@@....    %%%%rrrr",
"$$$$7777    ooooXXXX    ####<<<<    XXXX++++    &&&&aaaa    ++++OOOO    %%%%rrrr    OOOOrrrr%%%%....    @@@@****    ....rrrr%%%%",
"$$$$7777    ooooXXXX    ####<<<<    XXXX++++    &&&&aaaa    ++++OOOO    %%%%rrrr    OOOOrrrr%%%%....    @@@@****    ....rrrr%%%%",
"$$$$7777    ooooXXXX    ####<<<<    XXXX++++    &&&&aaaa    ++++OOOO    %%%%rrrr    OOOOrrrr%%%%....    @@@@****    ....rrrr%%%%",
"$$$$7777    ooooXXXX    ####<<<<    XXXX++++    &&&&aaaa    ++++OOOO    %%%%rrrr    OOOOrrrr%%%%....    @@@@****    ....rrrr%%%%",
"        oooo$$$$####XXXX        XXXX####&&&&++++        ++++&&&&%%%%OOOO        OOOO%%%%        @@@@....        ....@@@@        ",
"        oooo$$$$####XXXX        XXXX####&&&&++++        ++++&&&&%%%%OOOO        OOOO%%%%        @@@@....        ....@@@@        ",
"        oooo$$$$####XXXX        XXXX####&&&&++++        ++++&&&&%%%%OOOO        OOOO%%%%        @@@@....        ....@@@@        ",
"        oooo$$$$####XXXX        XXXX####&&&&++++        ++++&&&&%%%%OOOO        OOOO%%%%        @@@@....        ....@@@@        ",
"        $$$$ooooXXXX####        ####XXXX++++&&&&        &&&&++++OOOO%%%%        %%%%OOOO        ....@@@@        @@@@....        ",
"        $$$$ooooXXXX####        ####XXXX++++&&&&        &&&&++++OOOO%%%%        %%%%OOOO        ....@@@@        @@@@....        ",
"        $$$$ooooXXXX####        ####XXXX++++&&&&        &&&&++++OOOO%%%%        %%%%OOOO        ....@@@@        @@@@....        ",
"        $$$$ooooXXXX####        ####XXXX++++&&&&        &&&&++++OOOO%%%%        %%%%OOOO        ....@@@@        @@@@....        ",
"oooooooo                XXXXXXXX                ++++++++                OOOOOOOO        OOOOOOOO        ........        OOOOOOOO",
"oooooooo                XXXXXXXX                ++++++++                OOOOOOOO        OOOOOOOO        ........        OOOOOOOO",
"oooooooo                XXXXXXXX                ++++++++                OOOOOOOO        OOOOOOOO        ........        OOOOOOOO",
"oooooooo                XXXXXXXX                ++++++++                OOOOOOOO        OOOOOOOO        ........        OOOOOOOO",
"oooooooo                XXXXXXXX                ++++++++                OOOOOOOO        OOOOOOOO        ........        OOOOOOOO",
"oooooooo                XXXXXXXX                ++++++++                OOOOOOOO        OOOOOOOO        ........        OOOOOOOO",
"oooooooo                XXXXXXXX                ++++++++                OOOOOOOO        OOOOOOOO        ........        OOOOOOOO",
"oooooooo                XXXXXXXX                ++++++++                OOOOOOOO        OOOOOOOO        ........        OOOOOOOO",
"        ooooooooXXXXXXXX        XXXXXXXX++++++++        ++++++++OOOOOOOO        OOOOOOOO        ........        ........        ",
"        ooooooooXXXXXXXX        XXXXXXXX++++++++        ++++++++OOOOOOOO        OOOOOOOO        ........        ........        ",
"        ooooooooXXXXXXXX        XXXXXXXX++++++++        ++++++++OOOOOOOO        OOOOOOOO        ........        ........        ",
"        ooooooooXXXXXXXX        XXXXXXXX++++++++        ++++++++OOOOOOOO        OOOOOOOO        ........        ........        ",
"        ooooooooXXXXXXXX        XXXXXXXX++++++++        ++++++++OOOOOOOO        OOOOOOOO        ........        ........        ",
"        ooooooooXXXXXXXX        XXXXXXXX++++++++        ++++++++OOOOOOOO        OOOOOOOO        ........        ........        ",
"        ooooooooXXXXXXXX        XXXXXXXX++++++++        ++++++++OOOOOOOO        OOOOOOOO        ........        ........        ",
"        ooooooooXXXXXXXX        XXXXXXXX++++++++        ++++++++OOOOOOOO        OOOOOOOO        ........        ........        "
};
