/* XPM */
static char *_78aec232a7f40e0df71334d7faf23d6xKFoCmodQ0mgfEhG_5[] = {
/* columns rows colors chars-per-pixel */
"128 128 56 1 ",
"  c black",
". c #260300",
"X c #002600",
"o c #252600",
"O c #260026",
"+ c #002326",
"@ c #590600",
"# c #005900",
"$ c #575900",
"% c #590059",
"& c #005359",
"* c #8C0A00",
"= c #BF0D00",
"- c #F21100",
"; c #FF1100",
": c #FF1E0D",
"> c #FF4D40",
", c #FF7D73",
"< c #008C00",
"1 c #01BF00",
"2 c #01F200",
"3 c #01FF00",
"4 c #0EFF0D",
"5 c #40FF40",
"6 c #73FF73",
"7 c #888C00",
"8 c #BABF00",
"9 c #EBF200",
"0 c #F8FF00",
"q c #F8FF0D",
"w c #FAFF40",
"e c #FBFF73",
"r c #8C008C",
"t c #BF00BF",
"y c #F200F2",
"u c magenta",
"i c #FF40FF",
"p c #FF73FF",
"a c #00828C",
"s c #00B2BF",
"d c #01E1F2",
"f c #01EDFF",
"g c #0EEEFF",
"h c #40F2FF",
"j c #73F5FF",
"k c #FFACA6",
"l c #A6FFA6",
"z c #FDFFA6",
"x c #FFA6FF",
"c c #A6F9FF",
"v c #FFDCD9",
"b c #D9FFD9",
"n c #FEFFD9",
"m c #FFD9FF",
"M c #D9FCFF",
"N c white",
/* pixels */
"<<<<1111NNNNNNNN1111<<<<aaaassssNNNNNNNNssssaaaattttrrrrNNNNNNNNrrrrttttNNNNNNNN****====NNNNNNNN====****77778888NNNNNNNN88887777",
"<<<<1111NNNNNNNN1111<<<<aaaassssNNNNNNNNssssaaaattttrrrrNNNNNNNNrrrrttttNNNNNNNN****====NNNNNNNN====****77778888NNNNNNNN88887777",
"<<<<1111NNNNNNNN1111<<<<aaaassssNNNNNNNNssssaaaattttrrrrNNNNNNNNrrrrttttNNNNNNNN****====NNNNNNNN====****77778888NNNNNNNN88887777",
"<<<<1111NNNNNNNN1111<<<<aaaassssNNNNNNNNssssaaaattttrrrrNNNNNNNNrrrrttttNNNNNNNN****====NNNNNNNN====****77778888NNNNNNNN88887777",
"1111<<<<NNNNNNNN<<<<1111ssssaaaaNNNNNNNNaaaassssrrrrttttNNNNNNNNttttrrrrNNNNNNNN====****NNNNNNNN****====88887777NNNNNNNN77778888",
"1111<<<<NNNNNNNN<<<<1111ssssaaaaNNNNNNNNaaaassssrrrrttttNNNNNNNNttttrrrrNNNNNNNN====****NNNNNNNN****====88887777NNNNNNNN77778888",
"1111<<<<NNNNNNNN<<<<1111ssssaaaaNNNNNNNNaaaassssrrrrttttNNNNNNNNttttrrrrNNNNNNNN====****NNNNNNNN****====88887777NNNNNNNN77778888",
"1111<<<<NNNNNNNN<<<<1111ssssaaaaNNNNNNNNaaaassssrrrrttttNNNNNNNNttttrrrrNNNNNNNN====****NNNNNNNN****====88887777NNNNNNNN77778888",
"bbbbNNNN<<<<<<<<NNNNbbbbMMMMNNNNaaaaaaaaNNNNMMMMNNNNmmmmrrrrrrrrmmmmNNNNrrrrrrrrvvvvNNNN********NNNNvvvvnnnnNNNN77777777NNNNnnnn",
"bbbbNNNN<<<<<<<<NNNNbbbbMMMMNNNNaaaaaaaaNNNNMMMMNNNNmmmmrrrrrrrrmmmmNNNNrrrrrrrrvvvvNNNN********NNNNvvvvnnnnNNNN77777777NNNNnnnn",
"bbbbNNNN<<<<<<<<NNNNbbbbMMMMNNNNaaaaaaaaNNNNMMMMNNNNmmmmrrrrrrrrmmmmNNNNrrrrrrrrvvvvNNNN********NNNNvvvvnnnnNNNN77777777NNNNnnnn",
"bbbbNNNN<<<<<<<<NNNNbbbbMMMMNNNNaaaaaaaaNNNNMMMMNNNNmmmmrrrrrrrrmmmmNNNNrrrrrrrrvvvvNNNN********NNNNvvvvnnnnNNNN77777777NNNNnnnn",
"NNNNbbbb<<<<<<<<bbbbNNNNNNNNMMMMaaaaaaaaMMMMNNNNmmmmNNNNrrrrrrrrNNNNmmmmrrrrrrrrNNNNvvvv********vvvvNNNNNNNNnnnn77777777nnnnNNNN",
"NNNNbbbb<<<<<<<<bbbbNNNNNNNNMMMMaaaaaaaaMMMMNNNNmmmmNNNNrrrrrrrrNNNNmmmmrrrrrrrrNNNNvvvv********vvvvNNNNNNNNnnnn77777777nnnnNNNN",
"NNNNbbbb<<<<<<<<bbbbNNNNNNNNMMMMaaaaaaaaMMMMNNNNmmmmNNNNrrrrrrrrNNNNmmmmrrrrrrrrNNNNvvvv********vvvvNNNNNNNNnnnn77777777nnnnNNNN",
"NNNNbbbb<<<<<<<<bbbbNNNNNNNNMMMMaaaaaaaaMMMMNNNNmmmmNNNNrrrrrrrrNNNNmmmmrrrrrrrrNNNNvvvv********vvvvNNNNNNNNnnnn77777777nnnnNNNN",
"<<<<<<<<bbbbbbbb<<<<<<<<aaaaaaaaMMMMMMMMaaaaaaaarrrrrrrrmmmmmmmmrrrrrrrrmmmmmmmm********vvvvvvvv********77777777nnnnnnnn77777777",
"<<<<<<<<bbbbbbbb<<<<<<<<aaaaaaaaMMMMMMMMaaaaaaaarrrrrrrrmmmmmmmmrrrrrrrrmmmmmmmm********vvvvvvvv********77777777nnnnnnnn77777777",
"<<<<<<<<bbbbbbbb<<<<<<<<aaaaaaaaMMMMMMMMaaaaaaaarrrrrrrrmmmmmmmmrrrrrrrrmmmmmmmm********vvvvvvvv********77777777nnnnnnnn77777777",
"<<<<<<<<bbbbbbbb<<<<<<<<aaaaaaaaMMMMMMMMaaaaaaaarrrrrrrrmmmmmmmmrrrrrrrrmmmmmmmm********vvvvvvvv********77777777nnnnnnnn77777777",
"<<<<<<<<bbbbbbbb<<<<<<<<aaaaaaaaMMMMMMMMaaaaaaaarrrrrrrrmmmmmmmmrrrrrrrrmmmmmmmm********vvvvvvvv********77777777nnnnnnnn77777777",
"<<<<<<<<bbbbbbbb<<<<<<<<aaaaaaaaMMMMMMMMaaaaaaaarrrrrrrrmmmmmmmmrrrrrrrrmmmmmmmm********vvvvvvvv********77777777nnnnnnnn77777777",
"<<<<<<<<bbbbbbbb<<<<<<<<aaaaaaaaMMMMMMMMaaaaaaaarrrrrrrrmmmmmmmmrrrrrrrrmmmmmmmm********vvvvvvvv********77777777nnnnnnnn77777777",
"<<<<<<<<bbbbbbbb<<<<<<<<aaaaaaaaMMMMMMMMaaaaaaaarrrrrrrrmmmmmmmmrrrrrrrrmmmmmmmm********vvvvvvvv********77777777nnnnnnnn77777777",
"bbbbllll<<<<<<<<llllbbbbMMMMccccaaaaaaaaccccMMMMxxxxmmmmrrrrrrrrmmmmxxxxrrrrrrrrvvvvkkkk********kkkkvvvvnnnnzzzz77777777zzzznnnn",
"bbbbllll<<<<<<<<llllbbbbMMMMccccaaaaaaaaccccMMMMxxxxmmmmrrrrrrrrmmmmxxxxrrrrrrrrvvvvkkkk********kkkkvvvvnnnnzzzz77777777zzzznnnn",
"bbbbllll<<<<<<<<llllbbbbMMMMccccaaaaaaaaccccMMMMxxxxmmmmrrrrrrrrmmmmxxxxrrrrrrrrvvvvkkkk********kkkkvvvvnnnnzzzz77777777zzzznnnn",
"bbbbllll<<<<<<<<llllbbbbMMMMccccaaaaaaaaccccMMMMxxxxmmmmrrrrrrrrmmmmxxxxrrrrrrrrvvvvkkkk********kkkkvvvvnnnnzzzz77777777zzzznnnn",
"llllbbbb<<<<<<<<bbbbllllccccMMMMaaaaaaaaMMMMccccmmmmxxxxrrrrrrrrxxxxmmmmrrrrrrrrkkkkvvvv********vvvvkkkkzzzznnnn77777777nnnnzzzz",
"llllbbbb<<<<<<<<bbbbllllccccMMMMaaaaaaaaMMMMccccmmmmxxxxrrrrrrrrxxxxmmmmrrrrrrrrkkkkvvvv********vvvvkkkkzzzznnnn77777777nnnnzzzz",
"llllbbbb<<<<<<<<bbbbllllccccMMMMaaaaaaaaMMMMccccmmmmxxxxrrrrrrrrxxxxmmmmrrrrrrrrkkkkvvvv********vvvvkkkkzzzznnnn77777777nnnnzzzz",
"llllbbbb<<<<<<<<bbbbllllccccMMMMaaaaaaaaMMMMccccmmmmxxxxrrrrrrrrxxxxmmmmrrrrrrrrkkkkvvvv********vvvvkkkkzzzznnnn77777777nnnnzzzz",
"####<<<<llll6666<<<<####&&&&aaaaccccjjjjaaaa&&&&rrrr%%%%ppppxxxx%%%%rrrrxxxxpppp@@@@****kkkk,,,,****@@@@$$$$7777zzzzeeee7777$$$$",
"####<<<<llll6666<<<<####&&&&aaaaccccjjjjaaaa&&&&rrrr%%%%ppppxxxx%%%%rrrrxxxxpppp@@@@****kkkk,,,,****@@@@$$$$7777zzzzeeee7777$$$$",
"####<<<<llll6666<<<<####&&&&aaaaccccjjjjaaaa&&&&rrrr%%%%ppppxxxx%%%%rrrrxxxxpppp@@@@****kkkk,,,,****@@@@$$$$7777zzzzeeee7777$$$$",
"####<<<<llll6666<<<<####&&&&aaaaccccjjjjaaaa&&&&rrrr%%%%ppppxxxx%%%%rrrrxxxxpppp@@@@****kkkk,,,,****@@@@$$$$7777zzzzeeee7777$$$$",
"<<<<####6666llll####<<<<aaaa&&&&jjjjcccc&&&&aaaa%%%%rrrrxxxxpppprrrr%%%%ppppxxxx****@@@@,,,,kkkk@@@@****7777$$$$eeeezzzz$$$$7777",
"<<<<####6666llll####<<<<aaaa&&&&jjjjcccc&&&&aaaa%%%%rrrrxxxxpppprrrr%%%%ppppxxxx****@@@@,,,,kkkk@@@@****7777$$$$eeeezzzz$$$$7777",
"<<<<####6666llll####<<<<aaaa&&&&jjjjcccc&&&&aaaa%%%%rrrrxxxxpppprrrr%%%%ppppxxxx****@@@@,,,,kkkk@@@@****7777$$$$eeeezzzz$$$$7777",
"<<<<####6666llll####<<<<aaaa&&&&jjjjcccc&&&&aaaa%%%%rrrrxxxxpppprrrr%%%%ppppxxxx****@@@@,,,,kkkk@@@@****7777$$$$eeeezzzz$$$$7777",
"66665555########55556666jjjjhhhh&&&&&&&&hhhhjjjjiiiipppp%%%%%%%%ppppiiii%%%%%%%%,,,,>>>>@@@@@@@@>>>>,,,,eeeewwww$$$$$$$$wwwweeee",
"66665555########55556666jjjjhhhh&&&&&&&&hhhhjjjjiiiipppp%%%%%%%%ppppiiii%%%%%%%%,,,,>>>>@@@@@@@@>>>>,,,,eeeewwww$$$$$$$$wwwweeee",
"66665555########55556666jjjjhhhh&&&&&&&&hhhhjjjjiiiipppp%%%%%%%%ppppiiii%%%%%%%%,,,,>>>>@@@@@@@@>>>>,,,,eeeewwww$$$$$$$$wwwweeee",
"66665555########55556666jjjjhhhh&&&&&&&&hhhhjjjjiiiipppp%%%%%%%%ppppiiii%%%%%%%%,,,,>>>>@@@@@@@@>>>>,,,,eeeewwww$$$$$$$$wwwweeee",
"55556666########66665555hhhhjjjj&&&&&&&&jjjjhhhhppppiiii%%%%%%%%iiiipppp%%%%%%%%>>>>,,,,@@@@@@@@,,,,>>>>wwwweeee$$$$$$$$eeeewwww",
"55556666########66665555hhhhjjjj&&&&&&&&jjjjhhhhppppiiii%%%%%%%%iiiipppp%%%%%%%%>>>>,,,,@@@@@@@@,,,,>>>>wwwweeee$$$$$$$$eeeewwww",
"55556666########66665555hhhhjjjj&&&&&&&&jjjjhhhhppppiiii%%%%%%%%iiiipppp%%%%%%%%>>>>,,,,@@@@@@@@,,,,>>>>wwwweeee$$$$$$$$eeeewwww",
"55556666########66665555hhhhjjjj&&&&&&&&jjjjhhhhppppiiii%%%%%%%%iiiipppp%%%%%%%%>>>>,,,,@@@@@@@@,,,,>>>>wwwweeee$$$$$$$$eeeewwww",
"########33334444########&&&&&&&&ffffgggg&&&&&&&&%%%%%%%%uuuuuuuu%%%%%%%%uuuuuuuu@@@@@@@@;;;;::::@@@@@@@@$$$$$$$$0000qqqq$$$$$$$$",
"########33334444########&&&&&&&&ffffgggg&&&&&&&&%%%%%%%%uuuuuuuu%%%%%%%%uuuuuuuu@@@@@@@@;;;;::::@@@@@@@@$$$$$$$$0000qqqq$$$$$$$$",
"########33334444########&&&&&&&&ffffgggg&&&&&&&&%%%%%%%%uuuuuuuu%%%%%%%%uuuuuuuu@@@@@@@@;;;;::::@@@@@@@@$$$$$$$$0000qqqq$$$$$$$$",
"########33334444########&&&&&&&&ffffgggg&&&&&&&&%%%%%%%%uuuuuuuu%%%%%%%%uuuuuuuu@@@@@@@@;;;;::::@@@@@@@@$$$$$$$$0000qqqq$$$$$$$$",
"########33333333########&&&&&&&&ffffffff&&&&&&&&%%%%%%%%uuuuuuuu%%%%%%%%uuuuuuuu@@@@@@@@;;;;;;;;@@@@@@@@$$$$$$$$00000000$$$$$$$$",
"########33333333########&&&&&&&&ffffffff&&&&&&&&%%%%%%%%uuuuuuuu%%%%%%%%uuuuuuuu@@@@@@@@;;;;;;;;@@@@@@@@$$$$$$$$00000000$$$$$$$$",
"########33333333########&&&&&&&&ffffffff&&&&&&&&%%%%%%%%uuuuuuuu%%%%%%%%uuuuuuuu@@@@@@@@;;;;;;;;@@@@@@@@$$$$$$$$00000000$$$$$$$$",
"########33333333########&&&&&&&&ffffffff&&&&&&&&%%%%%%%%uuuuuuuu%%%%%%%%uuuuuuuu@@@@@@@@;;;;;;;;@@@@@@@@$$$$$$$$00000000$$$$$$$$",
"33333333########33333333ffffffff&&&&&&&&ffffffffuuuuuuuu%%%%%%%%uuuuuuuu%%%%%%%%;;;;;;;;@@@@@@@@;;;;;;;;00000000$$$$$$$$00000000",
"33333333########33333333ffffffff&&&&&&&&ffffffffuuuuuuuu%%%%%%%%uuuuuuuu%%%%%%%%;;;;;;;;@@@@@@@@;;;;;;;;00000000$$$$$$$$00000000",
"33333333########33333333ffffffff&&&&&&&&ffffffffuuuuuuuu%%%%%%%%uuuuuuuu%%%%%%%%;;;;;;;;@@@@@@@@;;;;;;;;00000000$$$$$$$$00000000",
"33333333########33333333ffffffff&&&&&&&&ffffffffuuuuuuuu%%%%%%%%uuuuuuuu%%%%%%%%;;;;;;;;@@@@@@@@;;;;;;;;00000000$$$$$$$$00000000",
"33333333########33333333ffffffff&&&&&&&&ffffffffuuuuuuuu%%%%%%%%uuuuuuuu%%%%%%%%;;;;;;;;@@@@@@@@;;;;;;;;00000000$$$$$$$$00000000",
"33333333########33333333ffffffff&&&&&&&&ffffffffuuuuuuuu%%%%%%%%uuuuuuuu%%%%%%%%;;;;;;;;@@@@@@@@;;;;;;;;00000000$$$$$$$$00000000",
"33333333########33333333ffffffff&&&&&&&&ffffffffuuuuuuuu%%%%%%%%uuuuuuuu%%%%%%%%;;;;;;;;@@@@@@@@;;;;;;;;00000000$$$$$$$$00000000",
"33333333########33333333ffffffff&&&&&&&&ffffffffuuuuuuuu%%%%%%%%uuuuuuuu%%%%%%%%;;;;;;;;@@@@@@@@;;;;;;;;00000000$$$$$$$$00000000",
"XXXX####33333333####XXXX++++&&&&ffffffff&&&&++++%%%%OOOOuuuuuuuuOOOO%%%%uuuuuuuu....@@@@;;;;;;;;@@@@....oooo$$$$00000000$$$$oooo",
"XXXX####33333333####XXXX++++&&&&ffffffff&&&&++++%%%%OOOOuuuuuuuuOOOO%%%%uuuuuuuu....@@@@;;;;;;;;@@@@....oooo$$$$00000000$$$$oooo",
"XXXX####33333333####XXXX++++&&&&ffffffff&&&&++++%%%%OOOOuuuuuuuuOOOO%%%%uuuuuuuu....@@@@;;;;;;;;@@@@....oooo$$$$00000000$$$$oooo",
"XXXX####33333333####XXXX++++&&&&ffffffff&&&&++++%%%%OOOOuuuuuuuuOOOO%%%%uuuuuuuu....@@@@;;;;;;;;@@@@....oooo$$$$00000000$$$$oooo",
"####XXXX33333333XXXX####&&&&++++ffffffff++++&&&&OOOO%%%%uuuuuuuu%%%%OOOOuuuuuuuu@@@@....;;;;;;;;....@@@@$$$$oooo00000000oooo$$$$",
"####XXXX33333333XXXX####&&&&++++ffffffff++++&&&&OOOO%%%%uuuuuuuu%%%%OOOOuuuuuuuu@@@@....;;;;;;;;....@@@@$$$$oooo00000000oooo$$$$",
"####XXXX33333333XXXX####&&&&++++ffffffff++++&&&&OOOO%%%%uuuuuuuu%%%%OOOOuuuuuuuu@@@@....;;;;;;;;....@@@@$$$$oooo00000000oooo$$$$",
"####XXXX33333333XXXX####&&&&++++ffffffff++++&&&&OOOO%%%%uuuuuuuu%%%%OOOOuuuuuuuu@@@@....;;;;;;;;....@@@@$$$$oooo00000000oooo$$$$",
"33332222XXXXXXXX22223333ffffdddd++++++++ddddffffyyyyuuuuOOOOOOOOuuuuyyyyOOOOOOOO;;;;----........----;;;;00009999oooooooo99990000",
"33332222XXXXXXXX22223333ffffdddd++++++++ddddffffyyyyuuuuOOOOOOOOuuuuyyyyOOOOOOOO;;;;----........----;;;;00009999oooooooo99990000",
"33332222XXXXXXXX22223333ffffdddd++++++++ddddffffyyyyuuuuOOOOOOOOuuuuyyyyOOOOOOOO;;;;----........----;;;;00009999oooooooo99990000",
"33332222XXXXXXXX22223333ffffdddd++++++++ddddffffyyyyuuuuOOOOOOOOuuuuyyyyOOOOOOOO;;;;----........----;;;;00009999oooooooo99990000",
"22223333XXXXXXXX33332222ddddffff++++++++ffffdddduuuuyyyyOOOOOOOOyyyyuuuuOOOOOOOO----;;;;........;;;;----99990000oooooooo00009999",
"22223333XXXXXXXX33332222ddddffff++++++++ffffdddduuuuyyyyOOOOOOOOyyyyuuuuOOOOOOOO----;;;;........;;;;----99990000oooooooo00009999",
"22223333XXXXXXXX33332222ddddffff++++++++ffffdddduuuuyyyyOOOOOOOOyyyyuuuuOOOOOOOO----;;;;........;;;;----99990000oooooooo00009999",
"22223333XXXXXXXX33332222ddddffff++++++++ffffdddduuuuyyyyOOOOOOOOyyyyuuuuOOOOOOOO----;;;;........;;;;----99990000oooooooo00009999",
"XXXXXXXX22221111XXXXXXXX++++++++ddddssss++++++++OOOOOOOOttttyyyyOOOOOOOOyyyytttt........----====........oooooooo99998888oooooooo",
"XXXXXXXX22221111XXXXXXXX++++++++ddddssss++++++++OOOOOOOOttttyyyyOOOOOOOOyyyytttt........----====........oooooooo99998888oooooooo",
"XXXXXXXX22221111XXXXXXXX++++++++ddddssss++++++++OOOOOOOOttttyyyyOOOOOOOOyyyytttt........----====........oooooooo99998888oooooooo",
"XXXXXXXX22221111XXXXXXXX++++++++ddddssss++++++++OOOOOOOOttttyyyyOOOOOOOOyyyytttt........----====........oooooooo99998888oooooooo",
"XXXXXXXX11112222XXXXXXXX++++++++ssssdddd++++++++OOOOOOOOyyyyttttOOOOOOOOttttyyyy........====----........oooooooo88889999oooooooo",
"XXXXXXXX11112222XXXXXXXX++++++++ssssdddd++++++++OOOOOOOOyyyyttttOOOOOOOOttttyyyy........====----........oooooooo88889999oooooooo",
"XXXXXXXX11112222XXXXXXXX++++++++ssssdddd++++++++OOOOOOOOyyyyttttOOOOOOOOttttyyyy........====----........oooooooo88889999oooooooo",
"XXXXXXXX11112222XXXXXXXX++++++++ssssdddd++++++++OOOOOOOOyyyyttttOOOOOOOOttttyyyy........====----........oooooooo88889999oooooooo",
"1111<<<<XXXXXXXX<<<<1111ssssaaaa++++++++aaaassssrrrrttttOOOOOOOOttttrrrrOOOOOOOO====****........****====88887777oooooooo77778888",
"1111<<<<XXXXXXXX<<<<1111ssssaaaa++++++++aaaassssrrrrttttOOOOOOOOttttrrrrOOOOOOOO====****........****====88887777oooooooo77778888",
"1111<<<<XXXXXXXX<<<<1111ssssaaaa++++++++aaaassssrrrrttttOOOOOOOOttttrrrrOOOOOOOO====****........****====88887777oooooooo77778888",
"1111<<<<XXXXXXXX<<<<1111ssssaaaa++++++++aaaassssrrrrttttOOOOOOOOttttrrrrOOOOOOOO====****........****====88887777oooooooo77778888",
"<<<<1111XXXXXXXX1111<<<<aaaassss++++++++ssssaaaattttrrrrOOOOOOOOrrrrttttOOOOOOOO****====........====****77778888oooooooo88887777",
"<<<<1111XXXXXXXX1111<<<<aaaassss++++++++ssssaaaattttrrrrOOOOOOOOrrrrttttOOOOOOOO****====........====****77778888oooooooo88887777",
"<<<<1111XXXXXXXX1111<<<<aaaassss++++++++ssssaaaattttrrrrOOOOOOOOrrrrttttOOOOOOOO****====........====****77778888oooooooo88887777",
"<<<<1111XXXXXXXX1111<<<<aaaassss++++++++ssssaaaattttrrrrOOOOOOOOrrrrttttOOOOOOOO****====........====****77778888oooooooo88887777",
"    XXXX<<<<####XXXX        ++++aaaa&&&&++++    OOOO    %%%%rrrr    OOOOrrrr%%%%    ....****@@@@....        oooo7777$$$$oooo    ",
"    XXXX<<<<####XXXX        ++++aaaa&&&&++++    OOOO    %%%%rrrr    OOOOrrrr%%%%    ....****@@@@....        oooo7777$$$$oooo    ",
"    XXXX<<<<####XXXX        ++++aaaa&&&&++++    OOOO    %%%%rrrr    OOOOrrrr%%%%    ....****@@@@....        oooo7777$$$$oooo    ",
"    XXXX<<<<####XXXX        ++++aaaa&&&&++++    OOOO    %%%%rrrr    OOOOrrrr%%%%    ....****@@@@....        oooo7777$$$$oooo    ",
"XXXX    ####<<<<    XXXX++++    &&&&aaaa    ++++    OOOOrrrr%%%%OOOO    %%%%rrrr....    @@@@****    ....oooo    $$$$7777    oooo",
"XXXX    ####<<<<    XXXX++++    &&&&aaaa    ++++    OOOOrrrr%%%%OOOO    %%%%rrrr....    @@@@****    ....oooo    $$$$7777    oooo",
"XXXX    ####<<<<    XXXX++++    &&&&aaaa    ++++    OOOOrrrr%%%%OOOO    %%%%rrrr....    @@@@****    ....oooo    $$$$7777    oooo",
"XXXX    ####<<<<    XXXX++++    &&&&aaaa    ++++    OOOOrrrr%%%%OOOO    %%%%rrrr....    @@@@****    ....oooo    $$$$7777    oooo",
"####XXXX        XXXX####&&&&++++        ++++&&&&OOOO%%%%        %%%%OOOO        @@@@....        ....@@@@$$$$oooo        oooo$$$$",
"####XXXX        XXXX####&&&&++++        ++++&&&&OOOO%%%%        %%%%OOOO        @@@@....        ....@@@@$$$$oooo        oooo$$$$",
"####XXXX        XXXX####&&&&++++        ++++&&&&OOOO%%%%        %%%%OOOO        @@@@....        ....@@@@$$$$oooo        oooo$$$$",
"####XXXX        XXXX####&&&&++++        ++++&&&&OOOO%%%%        %%%%OOOO        @@@@....        ....@@@@$$$$oooo        oooo$$$$",
"XXXX####        ####XXXX++++&&&&        &&&&++++%%%%OOOO        OOOO%%%%        ....@@@@        @@@@....oooo$$$$        $$$$oooo",
"XXXX####        ####XXXX++++&&&&        &&&&++++%%%%OOOO        OOOO%%%%        ....@@@@        @@@@....oooo$$$$        $$$$oooo",
"XXXX####        ####XXXX++++&&&&        &&&&++++%%%%OOOO        OOOO%%%%        ....@@@@        @@@@....oooo$$$$        $$$$oooo",
"XXXX####        ####XXXX++++&&&&        &&&&++++%%%%OOOO        OOOO%%%%        ....@@@@        @@@@....oooo$$$$        $$$$oooo",
"        XXXXXXXX                ++++++++                OOOOOOOO        OOOOOOOO        ........                oooooooo        ",
"        XXXXXXXX                ++++++++                OOOOOOOO        OOOOOOOO        ........                oooooooo        ",
"        XXXXXXXX                ++++++++                OOOOOOOO        OOOOOOOO        ........                oooooooo        ",
"        XXXXXXXX                ++++++++                OOOOOOOO        OOOOOOOO        ........                oooooooo        ",
"        XXXXXXXX                ++++++++                OOOOOOOO        OOOOOOOO        ........                oooooooo        ",
"        XXXXXXXX                ++++++++                OOOOOOOO        OOOOOOOO        ........                oooooooo        ",
"        XXXXXXXX                ++++++++                OOOOOOOO        OOOOOOOO        ........                oooooooo        ",
"        XXXXXXXX                ++++++++                OOOOOOOO        OOOOOOOO        ........                oooooooo        ",
"XXXXXXXX        XXXXXXXX++++++++        ++++++++OOOOOOOO        OOOOOOOO        ........        ........oooooooo        oooooooo",
"XXXXXXXX        XXXXXXXX++++++++        ++++++++OOOOOOOO        OOOOOOOO        ........        ........oooooooo        oooooooo",
"XXXXXXXX        XXXXXXXX++++++++        ++++++++OOOOOOOO        OOOOOOOO        ........        ........oooooooo        oooooooo",
"XXXXXXXX        XXXXXXXX++++++++        ++++++++OOOOOOOO        OOOOOOOO        ........        ........oooooooo        oooooooo",
"XXXXXXXX        XXXXXXXX++++++++        ++++++++OOOOOOOO        OOOOOOOO        ........        ........oooooooo        oooooooo",
"XXXXXXXX        XXXXXXXX++++++++        ++++++++OOOOOOOO        OOOOOOOO        ........        ........oooooooo        oooooooo",
"XXXXXXXX        XXXXXXXX++++++++        ++++++++OOOOOOOO        OOOOOOOO        ........        ........oooooooo        oooooooo",
"XXXXXXXX        XXXXXXXX++++++++        ++++++++OOOOOOOO        OOOOOOOO        ........        ........oooooooo        oooooooo"
};
