/* XPM */
static char *_78aec232a7f40e0df71334d7faf23d6xKFoCmodQ0mgfEhG_4[] = {
/* columns rows colors chars-per-pixel */
"128 128 56 1 ",
"  c black",
". c #260300",
"X c #002600",
"o c #252600",
"O c #260026",
"+ c #002326",
"@ c #590600",
"# c #005900",
"$ c #575900",
"% c #590059",
"& c #005359",
"* c #8C0A00",
"= c #BF0D00",
"- c #F21100",
"; c #FF1100",
": c #FF1E0D",
"> c #FF4D40",
", c #FF7D73",
"< c #008C00",
"1 c #01BF00",
"2 c #01F200",
"3 c #01FF00",
"4 c #0EFF0D",
"5 c #40FF40",
"6 c #73FF73",
"7 c #888C00",
"8 c #BABF00",
"9 c #EBF200",
"0 c #F8FF00",
"q c #F8FF0D",
"w c #FAFF40",
"e c #FBFF73",
"r c #8C008C",
"t c #BF00BF",
"y c #F200F2",
"u c magenta",
"i c #FF40FF",
"p c #FF73FF",
"a c #00828C",
"s c #00B2BF",
"d c #01E1F2",
"f c #01EDFF",
"g c #0EEEFF",
"h c #40F2FF",
"j c #73F5FF",
"k c #FFACA6",
"l c #A6FFA6",
"z c #FDFFA6",
"x c #FFA6FF",
"c c #A6F9FF",
"v c #FFDCD9",
"b c #D9FFD9",
"n c #FEFFD9",
"m c #FFD9FF",
"M c #D9FCFF",
"N c white",
/* pixels */
"1111<<<<aaaassssNNNNNNNNssssaaaarrrrttttNNNNNNNNttttrrrrNNNNNNNN****====NNNNNNNN====****77778888NNNNNNNN88887777<<<<1111NNNNNNNN",
"1111<<<<aaaassssNNNNNNNNssssaaaarrrrttttNNNNNNNNttttrrrrNNNNNNNN****====NNNNNNNN====****77778888NNNNNNNN88887777<<<<1111NNNNNNNN",
"1111<<<<aaaassssNNNNNNNNssssaaaarrrrttttNNNNNNNNttttrrrrNNNNNNNN****====NNNNNNNN====****77778888NNNNNNNN88887777<<<<1111NNNNNNNN",
"1111<<<<aaaassssNNNNNNNNssssaaaarrrrttttNNNNNNNNttttrrrrNNNNNNNN****====NNNNNNNN====****77778888NNNNNNNN88887777<<<<1111NNNNNNNN",
"<<<<1111ssssaaaaNNNNNNNNaaaassssttttrrrrNNNNNNNNrrrrttttNNNNNNNN====****NNNNNNNN****====88887777NNNNNNNN777788881111<<<<NNNNNNNN",
"<<<<1111ssssaaaaNNNNNNNNaaaassssttttrrrrNNNNNNNNrrrrttttNNNNNNNN====****NNNNNNNN****====88887777NNNNNNNN777788881111<<<<NNNNNNNN",
"<<<<1111ssssaaaaNNNNNNNNaaaassssttttrrrrNNNNNNNNrrrrttttNNNNNNNN====****NNNNNNNN****====88887777NNNNNNNN777788881111<<<<NNNNNNNN",
"<<<<1111ssssaaaaNNNNNNNNaaaassssttttrrrrNNNNNNNNrrrrttttNNNNNNNN====****NNNNNNNN****====88887777NNNNNNNN777788881111<<<<NNNNNNNN",
"NNNNbbbbMMMMNNNNaaaaaaaaNNNNMMMMmmmmNNNNrrrrrrrrNNNNmmmmrrrrrrrrvvvvNNNN********NNNNvvvvnnnnNNNN77777777NNNNnnnnbbbbNNNN<<<<<<<<",
"NNNNbbbbMMMMNNNNaaaaaaaaNNNNMMMMmmmmNNNNrrrrrrrrNNNNmmmmrrrrrrrrvvvvNNNN********NNNNvvvvnnnnNNNN77777777NNNNnnnnbbbbNNNN<<<<<<<<",
"NNNNbbbbMMMMNNNNaaaaaaaaNNNNMMMMmmmmNNNNrrrrrrrrNNNNmmmmrrrrrrrrvvvvNNNN********NNNNvvvvnnnnNNNN77777777NNNNnnnnbbbbNNNN<<<<<<<<",
"NNNNbbbbMMMMNNNNaaaaaaaaNNNNMMMMmmmmNNNNrrrrrrrrNNNNmmmmrrrrrrrrvvvvNNNN********NNNNvvvvnnnnNNNN77777777NNNNnnnnbbbbNNNN<<<<<<<<",
"bbbbNNNNNNNNMMMMaaaaaaaaMMMMNNNNNNNNmmmmrrrrrrrrmmmmNNNNrrrrrrrrNNNNvvvv********vvvvNNNNNNNNnnnn77777777nnnnNNNNNNNNbbbb<<<<<<<<",
"bbbbNNNNNNNNMMMMaaaaaaaaMMMMNNNNNNNNmmmmrrrrrrrrmmmmNNNNrrrrrrrrNNNNvvvv********vvvvNNNNNNNNnnnn77777777nnnnNNNNNNNNbbbb<<<<<<<<",
"bbbbNNNNNNNNMMMMaaaaaaaaMMMMNNNNNNNNmmmmrrrrrrrrmmmmNNNNrrrrrrrrNNNNvvvv********vvvvNNNNNNNNnnnn77777777nnnnNNNNNNNNbbbb<<<<<<<<",
"bbbbNNNNNNNNMMMMaaaaaaaaMMMMNNNNNNNNmmmmrrrrrrrrmmmmNNNNrrrrrrrrNNNNvvvv********vvvvNNNNNNNNnnnn77777777nnnnNNNNNNNNbbbb<<<<<<<<",
"<<<<<<<<aaaaaaaaMMMMMMMMaaaaaaaarrrrrrrrmmmmmmmmrrrrrrrrmmmmmmmm********vvvvvvvv********77777777nnnnnnnn77777777<<<<<<<<bbbbbbbb",
"<<<<<<<<aaaaaaaaMMMMMMMMaaaaaaaarrrrrrrrmmmmmmmmrrrrrrrrmmmmmmmm********vvvvvvvv********77777777nnnnnnnn77777777<<<<<<<<bbbbbbbb",
"<<<<<<<<aaaaaaaaMMMMMMMMaaaaaaaarrrrrrrrmmmmmmmmrrrrrrrrmmmmmmmm********vvvvvvvv********77777777nnnnnnnn77777777<<<<<<<<bbbbbbbb",
"<<<<<<<<aaaaaaaaMMMMMMMMaaaaaaaarrrrrrrrmmmmmmmmrrrrrrrrmmmmmmmm********vvvvvvvv********77777777nnnnnnnn77777777<<<<<<<<bbbbbbbb",
"<<<<<<<<aaaaaaaaMMMMMMMMaaaaaaaarrrrrrrrmmmmmmmmrrrrrrrrmmmmmmmm********vvvvvvvv********77777777nnnnnnnn77777777<<<<<<<<bbbbbbbb",
"<<<<<<<<aaaaaaaaMMMMMMMMaaaaaaaarrrrrrrrmmmmmmmmrrrrrrrrmmmmmmmm********vvvvvvvv********77777777nnnnnnnn77777777<<<<<<<<bbbbbbbb",
"<<<<<<<<aaaaaaaaMMMMMMMMaaaaaaaarrrrrrrrmmmmmmmmrrrrrrrrmmmmmmmm********vvvvvvvv********77777777nnnnnnnn77777777<<<<<<<<bbbbbbbb",
"<<<<<<<<aaaaaaaaMMMMMMMMaaaaaaaarrrrrrrrmmmmmmmmrrrrrrrrmmmmmmmm********vvvvvvvv********77777777nnnnnnnn77777777<<<<<<<<bbbbbbbb",
"llllbbbbMMMMccccaaaaaaaaccccMMMMmmmmxxxxrrrrrrrrxxxxmmmmrrrrrrrrvvvvkkkk********kkkkvvvvnnnnzzzz77777777zzzznnnnbbbbllll<<<<<<<<",
"llllbbbbMMMMccccaaaaaaaaccccMMMMmmmmxxxxrrrrrrrrxxxxmmmmrrrrrrrrvvvvkkkk********kkkkvvvvnnnnzzzz77777777zzzznnnnbbbbllll<<<<<<<<",
"llllbbbbMMMMccccaaaaaaaaccccMMMMmmmmxxxxrrrrrrrrxxxxmmmmrrrrrrrrvvvvkkkk********kkkkvvvvnnnnzzzz77777777zzzznnnnbbbbllll<<<<<<<<",
"llllbbbbMMMMccccaaaaaaaaccccMMMMmmmmxxxxrrrrrrrrxxxxmmmmrrrrrrrrvvvvkkkk********kkkkvvvvnnnnzzzz77777777zzzznnnnbbbbllll<<<<<<<<",
"bbbbllllccccMMMMaaaaaaaaMMMMccccxxxxmmmmrrrrrrrrmmmmxxxxrrrrrrrrkkkkvvvv********vvvvkkkkzzzznnnn77777777nnnnzzzzllllbbbb<<<<<<<<",
"bbbbllllccccMMMMaaaaaaaaMMMMccccxxxxmmmmrrrrrrrrmmmmxxxxrrrrrrrrkkkkvvvv********vvvvkkkkzzzznnnn77777777nnnnzzzzllllbbbb<<<<<<<<",
"bbbbllllccccMMMMaaaaaaaaMMMMccccxxxxmmmmrrrrrrrrmmmmxxxxrrrrrrrrkkkkvvvv********vvvvkkkkzzzznnnn77777777nnnnzzzzllllbbbb<<<<<<<<",
"bbbbllllccccMMMMaaaaaaaaMMMMccccxxxxmmmmrrrrrrrrmmmmxxxxrrrrrrrrkkkkvvvv********vvvvkkkkzzzznnnn77777777nnnnzzzzllllbbbb<<<<<<<<",
"<<<<####&&&&aaaaccccjjjjaaaa&&&&%%%%rrrrxxxxpppprrrr%%%%ppppxxxx@@@@****kkkk,,,,****@@@@$$$$7777zzzzeeee7777$$$$####<<<<llll6666",
"<<<<####&&&&aaaaccccjjjjaaaa&&&&%%%%rrrrxxxxpppprrrr%%%%ppppxxxx@@@@****kkkk,,,,****@@@@$$$$7777zzzzeeee7777$$$$####<<<<llll6666",
"<<<<####&&&&aaaaccccjjjjaaaa&&&&%%%%rrrrxxxxpppprrrr%%%%ppppxxxx@@@@****kkkk,,,,****@@@@$$$$7777zzzzeeee7777$$$$####<<<<llll6666",
"<<<<####&&&&aaaaccccjjjjaaaa&&&&%%%%rrrrxxxxpppprrrr%%%%ppppxxxx@@@@****kkkk,,,,****@@@@$$$$7777zzzzeeee7777$$$$####<<<<llll6666",
"####<<<<aaaa&&&&jjjjcccc&&&&aaaarrrr%%%%ppppxxxx%%%%rrrrxxxxpppp****@@@@,,,,kkkk@@@@****7777$$$$eeeezzzz$$$$7777<<<<####6666llll",
"####<<<<aaaa&&&&jjjjcccc&&&&aaaarrrr%%%%ppppxxxx%%%%rrrrxxxxpppp****@@@@,,,,kkkk@@@@****7777$$$$eeeezzzz$$$$7777<<<<####6666llll",
"####<<<<aaaa&&&&jjjjcccc&&&&aaaarrrr%%%%ppppxxxx%%%%rrrrxxxxpppp****@@@@,,,,kkkk@@@@****7777$$$$eeeezzzz$$$$7777<<<<####6666llll",
"####<<<<aaaa&&&&jjjjcccc&&&&aaaarrrr%%%%ppppxxxx%%%%rrrrxxxxpppp****@@@@,,,,kkkk@@@@****7777$$$$eeeezzzz$$$$7777<<<<####6666llll",
"55556666jjjjhhhh&&&&&&&&hhhhjjjjppppiiii%%%%%%%%iiiipppp%%%%%%%%,,,,>>>>@@@@@@@@>>>>,,,,eeeewwww$$$$$$$$wwwweeee66665555########",
"55556666jjjjhhhh&&&&&&&&hhhhjjjjppppiiii%%%%%%%%iiiipppp%%%%%%%%,,,,>>>>@@@@@@@@>>>>,,,,eeeewwww$$$$$$$$wwwweeee66665555########",
"55556666jjjjhhhh&&&&&&&&hhhhjjjjppppiiii%%%%%%%%iiiipppp%%%%%%%%,,,,>>>>@@@@@@@@>>>>,,,,eeeewwww$$$$$$$$wwwweeee66665555########",
"55556666jjjjhhhh&&&&&&&&hhhhjjjjppppiiii%%%%%%%%iiiipppp%%%%%%%%,,,,>>>>@@@@@@@@>>>>,,,,eeeewwww$$$$$$$$wwwweeee66665555########",
"66665555hhhhjjjj&&&&&&&&jjjjhhhhiiiipppp%%%%%%%%ppppiiii%%%%%%%%>>>>,,,,@@@@@@@@,,,,>>>>wwwweeee$$$$$$$$eeeewwww55556666########",
"66665555hhhhjjjj&&&&&&&&jjjjhhhhiiiipppp%%%%%%%%ppppiiii%%%%%%%%>>>>,,,,@@@@@@@@,,,,>>>>wwwweeee$$$$$$$$eeeewwww55556666########",
"66665555hhhhjjjj&&&&&&&&jjjjhhhhiiiipppp%%%%%%%%ppppiiii%%%%%%%%>>>>,,,,@@@@@@@@,,,,>>>>wwwweeee$$$$$$$$eeeewwww55556666########",
"66665555hhhhjjjj&&&&&&&&jjjjhhhhiiiipppp%%%%%%%%ppppiiii%%%%%%%%>>>>,,,,@@@@@@@@,,,,>>>>wwwweeee$$$$$$$$eeeewwww55556666########",
"########&&&&&&&&ffffgggg&&&&&&&&%%%%%%%%uuuuuuuu%%%%%%%%uuuuuuuu@@@@@@@@;;;;::::@@@@@@@@$$$$$$$$0000qqqq$$$$$$$$########33334444",
"########&&&&&&&&ffffgggg&&&&&&&&%%%%%%%%uuuuuuuu%%%%%%%%uuuuuuuu@@@@@@@@;;;;::::@@@@@@@@$$$$$$$$0000qqqq$$$$$$$$########33334444",
"########&&&&&&&&ffffgggg&&&&&&&&%%%%%%%%uuuuuuuu%%%%%%%%uuuuuuuu@@@@@@@@;;;;::::@@@@@@@@$$$$$$$$0000qqqq$$$$$$$$########33334444",
"########&&&&&&&&ffffgggg&&&&&&&&%%%%%%%%uuuuuuuu%%%%%%%%uuuuuuuu@@@@@@@@;;;;::::@@@@@@@@$$$$$$$$0000qqqq$$$$$$$$########33334444",
"########&&&&&&&&ffffffff&&&&&&&&%%%%%%%%uuuuuuuu%%%%%%%%uuuuuuuu@@@@@@@@;;;;;;;;@@@@@@@@$$$$$$$$00000000$$$$$$$$########33333333",
"########&&&&&&&&ffffffff&&&&&&&&%%%%%%%%uuuuuuuu%%%%%%%%uuuuuuuu@@@@@@@@;;;;;;;;@@@@@@@@$$$$$$$$00000000$$$$$$$$########33333333",
"########&&&&&&&&ffffffff&&&&&&&&%%%%%%%%uuuuuuuu%%%%%%%%uuuuuuuu@@@@@@@@;;;;;;;;@@@@@@@@$$$$$$$$00000000$$$$$$$$########33333333",
"########&&&&&&&&ffffffff&&&&&&&&%%%%%%%%uuuuuuuu%%%%%%%%uuuuuuuu@@@@@@@@;;;;;;;;@@@@@@@@$$$$$$$$00000000$$$$$$$$########33333333",
"33333333ffffffff&&&&&&&&ffffffffuuuuuuuu%%%%%%%%uuuuuuuu%%%%%%%%;;;;;;;;@@@@@@@@;;;;;;;;00000000$$$$$$$$0000000033333333########",
"33333333ffffffff&&&&&&&&ffffffffuuuuuuuu%%%%%%%%uuuuuuuu%%%%%%%%;;;;;;;;@@@@@@@@;;;;;;;;00000000$$$$$$$$0000000033333333########",
"33333333ffffffff&&&&&&&&ffffffffuuuuuuuu%%%%%%%%uuuuuuuu%%%%%%%%;;;;;;;;@@@@@@@@;;;;;;;;00000000$$$$$$$$0000000033333333########",
"33333333ffffffff&&&&&&&&ffffffffuuuuuuuu%%%%%%%%uuuuuuuu%%%%%%%%;;;;;;;;@@@@@@@@;;;;;;;;00000000$$$$$$$$0000000033333333########",
"33333333ffffffff&&&&&&&&ffffffffuuuuuuuu%%%%%%%%uuuuuuuu%%%%%%%%;;;;;;;;@@@@@@@@;;;;;;;;00000000$$$$$$$$0000000033333333########",
"33333333ffffffff&&&&&&&&ffffffffuuuuuuuu%%%%%%%%uuuuuuuu%%%%%%%%;;;;;;;;@@@@@@@@;;;;;;;;00000000$$$$$$$$0000000033333333########",
"33333333ffffffff&&&&&&&&ffffffffuuuuuuuu%%%%%%%%uuuuuuuu%%%%%%%%;;;;;;;;@@@@@@@@;;;;;;;;00000000$$$$$$$$0000000033333333########",
"33333333ffffffff&&&&&&&&ffffffffuuuuuuuu%%%%%%%%uuuuuuuu%%%%%%%%;;;;;;;;@@@@@@@@;;;;;;;;00000000$$$$$$$$0000000033333333########",
"####XXXX++++&&&&ffffffff&&&&++++OOOO%%%%uuuuuuuu%%%%OOOOuuuuuuuu....@@@@;;;;;;;;@@@@....oooo$$$$00000000$$$$ooooXXXX####33333333",
"####XXXX++++&&&&ffffffff&&&&++++OOOO%%%%uuuuuuuu%%%%OOOOuuuuuuuu....@@@@;;;;;;;;@@@@....oooo$$$$00000000$$$$ooooXXXX####33333333",
"####XXXX++++&&&&ffffffff&&&&++++OOOO%%%%uuuuuuuu%%%%OOOOuuuuuuuu....@@@@;;;;;;;;@@@@....oooo$$$$00000000$$$$ooooXXXX####33333333",
"####XXXX++++&&&&ffffffff&&&&++++OOOO%%%%uuuuuuuu%%%%OOOOuuuuuuuu....@@@@;;;;;;;;@@@@....oooo$$$$00000000$$$$ooooXXXX####33333333",
"XXXX####&&&&++++ffffffff++++&&&&%%%%OOOOuuuuuuuuOOOO%%%%uuuuuuuu@@@@....;;;;;;;;....@@@@$$$$oooo00000000oooo$$$$####XXXX33333333",
"XXXX####&&&&++++ffffffff++++&&&&%%%%OOOOuuuuuuuuOOOO%%%%uuuuuuuu@@@@....;;;;;;;;....@@@@$$$$oooo00000000oooo$$$$####XXXX33333333",
"XXXX####&&&&++++ffffffff++++&&&&%%%%OOOOuuuuuuuuOOOO%%%%uuuuuuuu@@@@....;;;;;;;;....@@@@$$$$oooo00000000oooo$$$$####XXXX33333333",
"XXXX####&&&&++++ffffffff++++&&&&%%%%OOOOuuuuuuuuOOOO%%%%uuuuuuuu@@@@....;;;;;;;;....@@@@$$$$oooo00000000oooo$$$$####XXXX33333333",
"22223333ffffdddd++++++++ddddffffuuuuyyyyOOOOOOOOyyyyuuuuOOOOOOOO;;;;----........----;;;;00009999oooooooo9999000033332222XXXXXXXX",
"22223333ffffdddd++++++++ddddffffuuuuyyyyOOOOOOOOyyyyuuuuOOOOOOOO;;;;----........----;;;;00009999oooooooo9999000033332222XXXXXXXX",
"22223333ffffdddd++++++++ddddffffuuuuyyyyOOOOOOOOyyyyuuuuOOOOOOOO;;;;----........----;;;;00009999oooooooo9999000033332222XXXXXXXX",
"22223333ffffdddd++++++++ddddffffuuuuyyyyOOOOOOOOyyyyuuuuOOOOOOOO;;;;----........----;;;;00009999oooooooo9999000033332222XXXXXXXX",
"33332222ddddffff++++++++ffffddddyyyyuuuuOOOOOOOOuuuuyyyyOOOOOOOO----;;;;........;;;;----99990000oooooooo0000999922223333XXXXXXXX",
"33332222ddddffff++++++++ffffddddyyyyuuuuOOOOOOOOuuuuyyyyOOOOOOOO----;;;;........;;;;----99990000oooooooo0000999922223333XXXXXXXX",
"33332222ddddffff++++++++ffffddddyyyyuuuuOOOOOOOOuuuuyyyyOOOOOOOO----;;;;........;;;;----99990000oooooooo0000999922223333XXXXXXXX",
"33332222ddddffff++++++++ffffddddyyyyuuuuOOOOOOOOuuuuyyyyOOOOOOOO----;;;;........;;;;----99990000oooooooo0000999922223333XXXXXXXX",
"XXXXXXXX++++++++ddddssss++++++++OOOOOOOOyyyyttttOOOOOOOOttttyyyy........----====........oooooooo99998888ooooooooXXXXXXXX22221111",
"XXXXXXXX++++++++ddddssss++++++++OOOOOOOOyyyyttttOOOOOOOOttttyyyy........----====........oooooooo99998888ooooooooXXXXXXXX22221111",
"XXXXXXXX++++++++ddddssss++++++++OOOOOOOOyyyyttttOOOOOOOOttttyyyy........----====........oooooooo99998888ooooooooXXXXXXXX22221111",
"XXXXXXXX++++++++ddddssss++++++++OOOOOOOOyyyyttttOOOOOOOOttttyyyy........----====........oooooooo99998888ooooooooXXXXXXXX22221111",
"XXXXXXXX++++++++ssssdddd++++++++OOOOOOOOttttyyyyOOOOOOOOyyyytttt........====----........oooooooo88889999ooooooooXXXXXXXX11112222",
"XXXXXXXX++++++++ssssdddd++++++++OOOOOOOOttttyyyyOOOOOOOOyyyytttt........====----........oooooooo88889999ooooooooXXXXXXXX11112222",
"XXXXXXXX++++++++ssssdddd++++++++OOOOOOOOttttyyyyOOOOOOOOyyyytttt........====----........oooooooo88889999ooooooooXXXXXXXX11112222",
"XXXXXXXX++++++++ssssdddd++++++++OOOOOOOOttttyyyyOOOOOOOOyyyytttt........====----........oooooooo88889999ooooooooXXXXXXXX11112222",
"<<<<1111ssssaaaa++++++++aaaassssttttrrrrOOOOOOOOrrrrttttOOOOOOOO====****........****====88887777oooooooo777788881111<<<<XXXXXXXX",
"<<<<1111ssssaaaa++++++++aaaassssttttrrrrOOOOOOOOrrrrttttOOOOOOOO====****........****====88887777oooooooo777788881111<<<<XXXXXXXX",
"<<<<1111ssssaaaa++++++++aaaassssttttrrrrOOOOOOOOrrrrttttOOOOOOOO====****........****====88887777oooooooo777788881111<<<<XXXXXXXX",
"<<<<1111ssssaaaa++++++++aaaassssttttrrrrOOOOOOOOrrrrttttOOOOOOOO====****........****====88887777oooooooo777788881111<<<<XXXXXXXX",
"1111<<<<aaaassss++++++++ssssaaaarrrrttttOOOOOOOOttttrrrrOOOOOOOO****====........====****77778888oooooooo88887777<<<<1111XXXXXXXX",
"1111<<<<aaaassss++++++++ssssaaaarrrrttttOOOOOOOOttttrrrrOOOOOOOO****====........====****77778888oooooooo88887777<<<<1111XXXXXXXX",
"1111<<<<aaaassss++++++++ssssaaaarrrrttttOOOOOOOOttttrrrrOOOOOOOO****====........====****77778888oooooooo88887777<<<<1111XXXXXXXX",
"1111<<<<aaaassss++++++++ssssaaaarrrrttttOOOOOOOOttttrrrrOOOOOOOO****====........====****77778888oooooooo88887777<<<<1111XXXXXXXX",
"XXXX        ++++aaaa&&&&++++        OOOOrrrr%%%%OOOO    %%%%rrrr    ....****@@@@....        oooo7777$$$$oooo        XXXX<<<<####",
"XXXX        ++++aaaa&&&&++++        OOOOrrrr%%%%OOOO    %%%%rrrr    ....****@@@@....        oooo7777$$$$oooo        XXXX<<<<####",
"XXXX        ++++aaaa&&&&++++        OOOOrrrr%%%%OOOO    %%%%rrrr    ....****@@@@....        oooo7777$$$$oooo        XXXX<<<<####",
"XXXX        ++++aaaa&&&&++++        OOOOrrrr%%%%OOOO    %%%%rrrr    ....****@@@@....        oooo7777$$$$oooo        XXXX<<<<####",
"    XXXX++++    &&&&aaaa    ++++OOOO    %%%%rrrr    OOOOrrrr%%%%....    @@@@****    ....oooo    $$$$7777    ooooXXXX    ####<<<<",
"    XXXX++++    &&&&aaaa    ++++OOOO    %%%%rrrr    OOOOrrrr%%%%....    @@@@****    ....oooo    $$$$7777    ooooXXXX    ####<<<<",
"    XXXX++++    &&&&aaaa    ++++OOOO    %%%%rrrr    OOOOrrrr%%%%....    @@@@****    ....oooo    $$$$7777    ooooXXXX    ####<<<<",
"    XXXX++++    &&&&aaaa    ++++OOOO    %%%%rrrr    OOOOrrrr%%%%....    @@@@****    ....oooo    $$$$7777    ooooXXXX    ####<<<<",
"XXXX####&&&&++++        ++++&&&&%%%%OOOO        OOOO%%%%        @@@@....        ....@@@@$$$$oooo        oooo$$$$####XXXX        ",
"XXXX####&&&&++++        ++++&&&&%%%%OOOO        OOOO%%%%        @@@@....        ....@@@@$$$$oooo        oooo$$$$####XXXX        ",
"XXXX####&&&&++++        ++++&&&&%%%%OOOO        OOOO%%%%        @@@@....        ....@@@@$$$$oooo        oooo$$$$####XXXX        ",
"XXXX####&&&&++++        ++++&&&&%%%%OOOO        OOOO%%%%        @@@@....        ....@@@@$$$$oooo        oooo$$$$####XXXX        ",
"####XXXX++++&&&&        &&&&++++OOOO%%%%        %%%%OOOO        ....@@@@        @@@@....oooo$$$$        $$$$ooooXXXX####        ",
"####XXXX++++&&&&        &&&&++++OOOO%%%%        %%%%OOOO        ....@@@@        @@@@....oooo$$$$        $$$$ooooXXXX####        ",
"####XXXX++++&&&&        &&&&++++OOOO%%%%        %%%%OOOO        ....@@@@        @@@@....oooo$$$$        $$$$ooooXXXX####        ",
"####XXXX++++&&&&        &&&&++++OOOO%%%%        %%%%OOOO        ....@@@@        @@@@....oooo$$$$        $$$$ooooXXXX####        ",
"                ++++++++                OOOOOOOO        OOOOOOOO        ........                oooooooo                XXXXXXXX",
"                ++++++++                OOOOOOOO        OOOOOOOO        ........                oooooooo                XXXXXXXX",
"                ++++++++                OOOOOOOO        OOOOOOOO        ........                oooooooo                XXXXXXXX",
"                ++++++++                OOOOOOOO        OOOOOOOO        ........                oooooooo                XXXXXXXX",
"                ++++++++                OOOOOOOO        OOOOOOOO        ........                oooooooo                XXXXXXXX",
"                ++++++++                OOOOOOOO        OOOOOOOO        ........                oooooooo                XXXXXXXX",
"                ++++++++                OOOOOOOO        OOOOOOOO        ........                oooooooo                XXXXXXXX",
"                ++++++++                OOOOOOOO        OOOOOOOO        ........                oooooooo                XXXXXXXX",
"XXXXXXXX++++++++        ++++++++OOOOOOOO        OOOOOOOO        ........        ........oooooooo        ooooooooXXXXXXXX        ",
"XXXXXXXX++++++++        ++++++++OOOOOOOO        OOOOOOOO        ........        ........oooooooo        ooooooooXXXXXXXX        ",
"XXXXXXXX++++++++        ++++++++OOOOOOOO        OOOOOOOO        ........        ........oooooooo        ooooooooXXXXXXXX        ",
"XXXXXXXX++++++++        ++++++++OOOOOOOO        OOOOOOOO        ........        ........oooooooo        ooooooooXXXXXXXX        ",
"XXXXXXXX++++++++        ++++++++OOOOOOOO        OOOOOOOO        ........        ........oooooooo        ooooooooXXXXXXXX        ",
"XXXXXXXX++++++++        ++++++++OOOOOOOO        OOOOOOOO        ........        ........oooooooo        ooooooooXXXXXXXX        ",
"XXXXXXXX++++++++        ++++++++OOOOOOOO        OOOOOOOO        ........        ........oooooooo        ooooooooXXXXXXXX        ",
"XXXXXXXX++++++++        ++++++++OOOOOOOO        OOOOOOOO        ........        ........oooooooo        ooooooooXXXXXXXX        "
};
