/* XPM */
static char *b83a1ff9fce041d2b8c2bbcef557f037Vr46ncoaeHXL0QtQ[] = {
/* columns rows colors chars-per-pixel */
"64 64 13 1 ",
"  c black",
". c #002326",
"X c #005359",
"o c #00828C",
"O c #00B2BF",
"+ c #00E1F2",
"@ c #00EDFF",
"# c #0DEEFF",
"$ c #40F2FF",
"% c #73F5FF",
"& c #A6F9FF",
"* c #D9FCFF",
"= c white",
/* pixels */
"ooOO====OOoo====ooOO====OOoo====ooOO====OOoo====ooOO====OOoo====",
"ooOO====OOoo====ooOO====OOoo====ooOO====OOoo====ooOO====OOoo====",
"OOoo====ooOO====OOoo====ooOO====OOoo====ooOO====OOoo====ooOO====",
"OOoo====ooOO====OOoo====ooOO====OOoo====ooOO====OOoo====ooOO====",
"**==oooo==**oooo**==oooo==**oooo**==oooo==**oooo**==oooo==**oooo",
"**==oooo==**oooo**==oooo==**oooo**==oooo==**oooo**==oooo==**oooo",
"==**oooo**==oooo==**oooo**==oooo==**oooo**==oooo==**oooo**==oooo",
"==**oooo**==oooo==**oooo**==oooo==**oooo**==oooo==**oooo**==oooo",
"oooo****oooo****oooo****oooo****oooo****oooo****oooo****oooo****",
"oooo****oooo****oooo****oooo****oooo****oooo****oooo****oooo****",
"oooo****oooo****oooo****oooo****oooo****oooo****oooo****oooo****",
"oooo****oooo****oooo****oooo****oooo****oooo****oooo****oooo****",
"**&&oooo&&**oooo**&&oooo&&**oooo**&&oooo&&**oooo**&&oooo&&**oooo",
"**&&oooo&&**oooo**&&oooo&&**oooo**&&oooo&&**oooo**&&oooo&&**oooo",
"&&**oooo**&&oooo&&**oooo**&&oooo&&**oooo**&&oooo&&**oooo**&&oooo",
"&&**oooo**&&oooo&&**oooo**&&oooo&&**oooo**&&oooo&&**oooo**&&oooo",
"XXoo&&%%ooXX%%&&XXoo&&%%ooXX%%&&XXoo&&%%ooXX%%&&XXoo&&%%ooXX%%&&",
"XXoo&&%%ooXX%%&&XXoo&&%%ooXX%%&&XXoo&&%%ooXX%%&&XXoo&&%%ooXX%%&&",
"ooXX%%&&XXoo&&%%ooXX%%&&XXoo&&%%ooXX%%&&XXoo&&%%ooXX%%&&XXoo&&%%",
"ooXX%%&&XXoo&&%%ooXX%%&&XXoo&&%%ooXX%%&&XXoo&&%%ooXX%%&&XXoo&&%%",
"%%$$XXXX$$%%XXXX%%$$XXXX$$%%XXXX%%$$XXXX$$%%XXXX%%$$XXXX$$%%XXXX",
"%%$$XXXX$$%%XXXX%%$$XXXX$$%%XXXX%%$$XXXX$$%%XXXX%%$$XXXX$$%%XXXX",
"$$%%XXXX%%$$XXXX$$%%XXXX%%$$XXXX$$%%XXXX%%$$XXXX$$%%XXXX%%$$XXXX",
"$$%%XXXX%%$$XXXX$$%%XXXX%%$$XXXX$$%%XXXX%%$$XXXX$$%%XXXX%%$$XXXX",
"XXXX@@##XXXX@@@@XXXX@@@@XXXX@@@@XXXX@@@@XXXX@@@@XXXX@@@@XXXX@@@@",
"XXXX@@##XXXX@@@@XXXX@@@@XXXX@@@@XXXX@@@@XXXX@@@@XXXX@@@@XXXX@@@@",
"XXXX@@@@XXXX@@@@XXXX@@@@XXXX@@@@XXXX@@@@XXXX@@@@XXXX@@@@XXXX@@@@",
"XXXX@@@@XXXX@@@@XXXX@@@@XXXX@@@@XXXX@@@@XXXX@@@@XXXX@@@@XXXX@@@@",
"@@@@XXXX@@@@XXXX@@@@XXXX@@@@XXXX@@@@XXXX@@@@XXXX@@@@XXXX@@@@XXXX",
"@@@@XXXX@@@@XXXX@@@@XXXX@@@@XXXX@@@@XXXX@@@@XXXX@@@@XXXX@@@@XXXX",
"@@@@XXXX@@@@XXXX@@@@XXXX@@@@XXXX@@@@XXXX@@@@XXXX@@@@XXXX@@@@XXXX",
"@@@@XXXX@@@@XXXX@@@@XXXX@@@@XXXX@@@@XXXX@@@@XXXX@@@@XXXX@@@@XXXX",
"..XX@@@@XX..@@@@..XX@@@@XX..@@@@..XX@@@@XX..@@@@..XX@@@@XX..@@@@",
"..XX@@@@XX..@@@@..XX@@@@XX..@@@@..XX@@@@XX..@@@@..XX@@@@XX..@@@@",
"XX..@@@@..XX@@@@XX..@@@@..XX@@@@XX..@@@@..XX@@@@XX..@@@@..XX@@@@",
"XX..@@@@..XX@@@@XX..@@@@..XX@@@@XX..@@@@..XX@@@@XX..@@@@..XX@@@@",
"@@++....++@@....@@++....++@@....@@++....++@@....@@++....++@@....",
"@@++....++@@....@@++....++@@....@@++....++@@....@@++....++@@....",
"++@@....@@++....++@@....@@++....++@@....@@++....++@@....@@++....",
"++@@....@@++....++@@....@@++....++@@....@@++....++@@....@@++....",
"....++OO....OO++....++OO....OO++....++OO....OO++....++OO....OO++",
"....++OO....OO++....++OO....OO++....++OO....OO++....++OO....OO++",
"....OO++....++OO....OO++....++OO....OO++....++OO....OO++....++OO",
"....OO++....++OO....OO++....++OO....OO++....++OO....OO++....++OO",
"OOoo....ooOO....OOoo....ooOO....OOoo....ooOO....OOoo....ooOO....",
"OOoo....ooOO....OOoo....ooOO....OOoo....ooOO....OOoo....ooOO....",
"ooOO....OOoo....ooOO....OOoo....ooOO....OOoo....ooOO....OOoo....",
"ooOO....OOoo....ooOO....OOoo....ooOO....OOoo....ooOO....OOoo....",
"  ..ooXX..  XXoo  ..ooXX..  XXoo  ..ooXX..  XXoo  ..ooXX..  XXoo",
"  ..ooXX..  XXoo  ..ooXX..  XXoo  ..ooXX..  XXoo  ..ooXX..  XXoo",
"..  XXoo  ..ooXX..  XXoo  ..ooXX..  XXoo  ..ooXX..  XXoo  ..ooXX",
"..  XXoo  ..ooXX..  XXoo  ..ooXX..  XXoo  ..ooXX..  XXoo  ..ooXX",
"XX..    ..XX    XX..    ..XX    XX..    ..XX    XX..    ..XX    ",
"XX..    ..XX    XX..    ..XX    XX..    ..XX    XX..    ..XX    ",
"..XX    XX..    ..XX    XX..    ..XX    XX..    ..XX    XX..    ",
"..XX    XX..    ..XX    XX..    ..XX    XX..    ..XX    XX..    ",
"    ....    ....    ....    ....    ....    ....    ....    ....",
"    ....    ....    ....    ....    ....    ....    ....    ....",
"    ....    ....    ....    ....    ....    ....    ....    ....",
"    ....    ....    ....    ....    ....    ....    ....    ....",
"....    ....    ....    ....    ....    ....    ....    ....    ",
"....    ....    ....    ....    ....    ....    ....    ....    ",
"....    ....    ....    ....    ....    ....    ....    ....    ",
"....    ....    ....    ....    ....    ....    ....    ....    "
};
