/* XPM */
static char *ad610311151e4e2de79cfc08977a2ad7xlMUa7imOVBsFoTB[] = {
/* columns rows colors chars-per-pixel */
"64 64 6 1 ",
"  c None",
". c black",
"X c #260026",
"o c #590059",
"O c #8C008C",
"+ c #BF00BF",
/* pixels */
"OO++    ++OO    OO++    ++OO    OO++    ++OO    OO++    ++OO    ",
"OO++    ++OO    OO++    ++OO    OO++    ++OO    OO++    ++OO    ",
"++OO    OO++    ++OO    OO++    ++OO    OO++    ++OO    OO++    ",
"++OO    OO++    ++OO    OO++    ++OO    OO++    ++OO    OO++    ",
"    OOOO    OOOO    OOOO    OOOO    OOOO    OOOO    OOOO    OOOO",
"    OOOO    OOOO    OOOO    OOOO    OOOO    OOOO    OOOO    OOOO",
"    OOOO    OOOO    OOOO    OOOO    OOOO    OOOO    OOOO    OOOO",
"    OOOO    OOOO    OOOO    OOOO    OOOO    OOOO    OOOO    OOOO",
"OOOO    OOOO    OOOO    OOOO    OOOO    OOOO    OOOO    OOOO    ",
"OOOO    OOOO    OOOO    OOOO    OOOO    OOOO    OOOO    OOOO    ",
"OOOO    OOOO    OOOO    OOOO    OOOO    OOOO    OOOO    OOOO    ",
"OOOO    OOOO    OOOO    OOOO    OOOO    OOOO    OOOO    OOOO    ",
"    OOOO    OOOO    OOOO    OOOO    OOOO    OOOO    OOOO    OOOO",
"    OOOO    OOOO    OOOO    OOOO    OOOO    OOOO    OOOO    OOOO",
"    OOOO    OOOO    OOOO    OOOO    OOOO    OOOO    OOOO    OOOO",
"    OOOO    OOOO    OOOO    OOOO    OOOO    OOOO    OOOO    OOOO",
"ooOO    OOoo    ooOO    OOoo    ooOO    OOoo    ooOO    OOoo    ",
"ooOO    OOoo    ooOO    OOoo    ooOO    OOoo    ooOO    OOoo    ",
"OOoo    ooOO    OOoo    ooOO    OOoo    ooOO    OOoo    ooOO    ",
"OOoo    ooOO    OOoo    ooOO    OOoo    ooOO    OOoo    ooOO    ",
"    oooo    oooo    oooo    oooo    oooo    oooo    oooo    oooo",
"    oooo    oooo    oooo    oooo    oooo    oooo    oooo    oooo",
"    oooo    oooo    oooo    oooo    oooo    oooo    oooo    oooo",
"    oooo    oooo    oooo    oooo    oooo    oooo    oooo    oooo",
"oooo    oooo    oooo    oooo    oooo    oooo    oooo    oooo    ",
"oooo    oooo    oooo    oooo    oooo    oooo    oooo    oooo    ",
"oooo    oooo    oooo    oooo    oooo    oooo    oooo    oooo    ",
"oooo    oooo    oooo    oooo    oooo    oooo    oooo    oooo    ",
"    oooo    oooo    oooo    oooo    oooo    oooo    oooo    oooo",
"    oooo    oooo    oooo    oooo    oooo    oooo    oooo    oooo",
"    oooo    oooo    oooo    oooo    oooo    oooo    oooo    oooo",
"    oooo    oooo    oooo    oooo    oooo    oooo    oooo    oooo",
"XXoo    ooXX    XXoo    ooXX    XXoo    ooXX    XXoo    ooXX    ",
"XXoo    ooXX    XXoo    ooXX    XXoo    ooXX    XXoo    ooXX    ",
"ooXX    XXoo    ooXX    XXoo    ooXX    XXoo    ooXX    XXoo    ",
"ooXX    XXoo    ooXX    XXoo    ooXX    XXoo    ooXX    XXoo    ",
"    XXXX    XXXX    XXXX    XXXX    XXXX    XXXX    XXXX    XXXX",
"    XXXX    XXXX    XXXX    XXXX    XXXX    XXXX    XXXX    XXXX",
"    XXXX    XXXX    XXXX    XXXX    XXXX    XXXX    XXXX    XXXX",
"    XXXX    XXXX    XXXX    XXXX    XXXX    XXXX    XXXX    XXXX",
"XXXX    XXXX    XXXX    XXXX    XXXX    XXXX    XXXX    XXXX    ",
"XXXX    XXXX    XXXX    XXXX    XXXX    XXXX    XXXX    XXXX    ",
"XXXX    XXXX    XXXX    XXXX    XXXX    XXXX    XXXX    XXXX    ",
"XXXX    XXXX    XXXX    XXXX    XXXX    XXXX    XXXX    XXXX    ",
"    XXXX    XXXX    XXXX    XXXX    XXXX    XXXX    XXXX    XXXX",
"    XXXX    XXXX    XXXX    XXXX    XXXX    XXXX    XXXX    XXXX",
"    XXXX    XXXX    XXXX    XXXX    XXXX    XXXX    XXXX    XXXX",
"    XXXX    XXXX    XXXX    XXXX    XXXX    XXXX    XXXX    XXXX",
"..XX    XX..    ..XX    XX..    ..XX    XX..    ..XX    XX..    ",
"..XX    XX..    ..XX    XX..    ..XX    XX..    ..XX    XX..    ",
"XX..    ..XX    XX..    ..XX    XX..    ..XX    XX..    ..XX    ",
"XX..    ..XX    XX..    ..XX    XX..    ..XX    XX..    ..XX    ",
"    ....    ....    ....    ....    ....    ....    ....    ....",
"    ....    ....    ....    ....    ....    ....    ....    ....",
"    ....    ....    ....    ....    ....    ....    ....    ....",
"    ....    ....    ....    ....    ....    ....    ....    ....",
"....    ....    ....    ....    ....    ....    ....    ....    ",
"....    ....    ....    ....    ....    ....    ....    ....    ",
"....    ....    ....    ....    ....    ....    ....    ....    ",
"....    ....    ....    ....    ....    ....    ....    ....    ",
"    ....    ....    ....    ....    ....    ....    ....    ....",
"    ....    ....    ....    ....    ....    ....    ....    ....",
"    ....    ....    ....    ....    ....    ....    ....    ....",
"    ....    ....    ....    ....    ....    ....    ....    ...."
};
