/* XPM */
static char *_06d557644704e4cae50364f5a559da7IeBnpX3wwUC0b9LJ[] = {
/* columns rows colors chars-per-pixel */
"64 64 13 1 ",
"  c black",
". c #260300",
"X c #590600",
"o c #8C0A00",
"O c #BF0D00",
"+ c #F21100",
"@ c #FF1200",
"# c #FF1E0D",
"$ c #FF4D40",
"% c #FF7D73",
"& c #FFACA6",
"* c #FFDCD9",
"= c white",
/* pixels */
"ooOO====OOoo====ooOO====OOoo====ooOO====OOoo====ooOO====OOoo====",
"ooOO====OOoo====ooOO====OOoo====ooOO====OOoo====ooOO====OOoo====",
"OOoo====ooOO====OOoo====ooOO====OOoo====ooOO====OOoo====ooOO====",
"OOoo====ooOO====OOoo====ooOO====OOoo====ooOO====OOoo====ooOO====",
"**==oooo==**oooo**==oooo==**oooo**==oooo==**oooo**==oooo==**oooo",
"**==oooo==**oooo**==oooo==**oooo**==oooo==**oooo**==oooo==**oooo",
"==**oooo**==oooo==**oooo**==oooo==**oooo**==oooo==**oooo**==oooo",
"==**oooo**==oooo==**oooo**==oooo==**oooo**==oooo==**oooo**==oooo",
"oooo****oooo****oooo****oooo****oooo****oooo****oooo****oooo****",
"oooo****oooo****oooo****oooo****oooo****oooo****oooo****oooo****",
"oooo****oooo****oooo****oooo****oooo****oooo****oooo****oooo****",
"oooo****oooo****oooo****oooo****oooo****oooo****oooo****oooo****",
"**&&oooo&&**oooo**&&oooo&&**oooo**&&oooo&&**oooo**&&oooo&&**oooo",
"**&&oooo&&**oooo**&&oooo&&**oooo**&&oooo&&**oooo**&&oooo&&**oooo",
"&&**oooo**&&oooo&&**oooo**&&oooo&&**oooo**&&oooo&&**oooo**&&oooo",
"&&**oooo**&&oooo&&**oooo**&&oooo&&**oooo**&&oooo&&**oooo**&&oooo",
"XXoo&&%%ooXX%%&&XXoo&&%%ooXX%%&&XXoo&&%%ooXX%%&&XXoo&&%%ooXX%%&&",
"XXoo&&%%ooXX%%&&XXoo&&%%ooXX%%&&XXoo&&%%ooXX%%&&XXoo&&%%ooXX%%&&",
"ooXX%%&&XXoo&&%%ooXX%%&&XXoo&&%%ooXX%%&&XXoo&&%%ooXX%%&&XXoo&&%%",
"ooXX%%&&XXoo&&%%ooXX%%&&XXoo&&%%ooXX%%&&XXoo&&%%ooXX%%&&XXoo&&%%",
"%%$$XXXX$$%%XXXX%%$$XXXX$$%%XXXX%%$$XXXX$$%%XXXX%%$$XXXX$$%%XXXX",
"%%$$XXXX$$%%XXXX%%$$XXXX$$%%XXXX%%$$XXXX$$%%XXXX%%$$XXXX$$%%XXXX",
"$$%%XXXX%%$$XXXX$$%%XXXX%%$$XXXX$$%%XXXX%%$$XXXX$$%%XXXX%%$$XXXX",
"$$%%XXXX%%$$XXXX$$%%XXXX%%$$XXXX$$%%XXXX%%$$XXXX$$%%XXXX%%$$XXXX",
"XXXX@@##XXXX@@@@XXXX@@@@XXXX@@@@XXXX@@@@XXXX@@@@XXXX@@@@XXXX@@@@",
"XXXX@@##XXXX@@@@XXXX@@@@XXXX@@@@XXXX@@@@XXXX@@@@XXXX@@@@XXXX@@@@",
"XXXX@@@@XXXX@@@@XXXX@@@@XXXX@@@@XXXX@@@@XXXX@@@@XXXX@@@@XXXX@@@@",
"XXXX@@@@XXXX@@@@XXXX@@@@XXXX@@@@XXXX@@@@XXXX@@@@XXXX@@@@XXXX@@@@",
"@@@@XXXX@@@@XXXX@@@@XXXX@@@@XXXX@@@@XXXX@@@@XXXX@@@@XXXX@@@@XXXX",
"@@@@XXXX@@@@XXXX@@@@XXXX@@@@XXXX@@@@XXXX@@@@XXXX@@@@XXXX@@@@XXXX",
"@@@@XXXX@@@@XXXX@@@@XXXX@@@@XXXX@@@@XXXX@@@@XXXX@@@@XXXX@@@@XXXX",
"@@@@XXXX@@@@XXXX@@@@XXXX@@@@XXXX@@@@XXXX@@@@XXXX@@@@XXXX@@@@XXXX",
"..XX@@@@XX..@@@@..XX@@@@XX..@@@@..XX@@@@XX..@@@@..XX@@@@XX..@@@@",
"..XX@@@@XX..@@@@..XX@@@@XX..@@@@..XX@@@@XX..@@@@..XX@@@@XX..@@@@",
"XX..@@@@..XX@@@@XX..@@@@..XX@@@@XX..@@@@..XX@@@@XX..@@@@..XX@@@@",
"XX..@@@@..XX@@@@XX..@@@@..XX@@@@XX..@@@@..XX@@@@XX..@@@@..XX@@@@",
"@@++....++@@....@@++....++@@....@@++....++@@....@@++....++@@....",
"@@++....++@@....@@++....++@@....@@++....++@@....@@++....++@@....",
"++@@....@@++....++@@....@@++....++@@....@@++....++@@....@@++....",
"++@@....@@++....++@@....@@++....++@@....@@++....++@@....@@++....",
"....++OO....OO++....++OO....OO++....++OO....OO++....++OO....OO++",
"....++OO....OO++....++OO....OO++....++OO....OO++....++OO....OO++",
"....OO++....++OO....OO++....++OO....OO++....++OO....OO++....++OO",
"....OO++....++OO....OO++....++OO....OO++....++OO....OO++....++OO",
"OOoo....ooOO....OOoo....ooOO....OOoo....ooOO....OOoo....ooOO....",
"OOoo....ooOO....OOoo....ooOO....OOoo....ooOO....OOoo....ooOO....",
"ooOO....OOoo....ooOO....OOoo....ooOO....OOoo....ooOO....OOoo....",
"ooOO....OOoo....ooOO....OOoo....ooOO....OOoo....ooOO....OOoo....",
"  ..ooXX..  XXoo  ..ooXX..  XXoo  ..ooXX..  XXoo  ..ooXX..  XXoo",
"  ..ooXX..  XXoo  ..ooXX..  XXoo  ..ooXX..  XXoo  ..ooXX..  XXoo",
"..  XXoo  ..ooXX..  XXoo  ..ooXX..  XXoo  ..ooXX..  XXoo  ..ooXX",
"..  XXoo  ..ooXX..  XXoo  ..ooXX..  XXoo  ..ooXX..  XXoo  ..ooXX",
"XX..    ..XX    XX..    ..XX    XX..    ..XX    XX..    ..XX    ",
"XX..    ..XX    XX..    ..XX    XX..    ..XX    XX..    ..XX    ",
"..XX    XX..    ..XX    XX..    ..XX    XX..    ..XX    XX..    ",
"..XX    XX..    ..XX    XX..    ..XX    XX..    ..XX    XX..    ",
"    ....    ....    ....    ....    ....    ....    ....    ....",
"    ....    ....    ....    ....    ....    ....    ....    ....",
"    ....    ....    ....    ....    ....    ....    ....    ....",
"    ....    ....    ....    ....    ....    ....    ....    ....",
"....    ....    ....    ....    ....    ....    ....    ....    ",
"....    ....    ....    ....    ....    ....    ....    ....    ",
"....    ....    ....    ....    ....    ....    ....    ....    ",
"....    ....    ....    ....    ....    ....    ....    ....    "
};
