/* XPM */
static char *b4216f417bb24b21ef7e47a09315be72fzn8rCn88PG8dlu4[] = {
/* columns rows colors chars-per-pixel */
"64 64 13 1 ",
"  c black",
". c #252600",
"X c #575900",
"o c #888C00",
"O c #BABF00",
"+ c #EBF200",
"@ c #F8FF00",
"# c #F8FF0D",
"$ c #FAFF40",
"% c #FBFF73",
"& c #FDFFA6",
"* c #FEFFD9",
"= c white",
/* pixels */
"ooOO====OOoo====ooOO====OOoo====ooOO====OOoo====ooOO====OOoo====",
"ooOO====OOoo====ooOO====OOoo====ooOO====OOoo====ooOO====OOoo====",
"OOoo====ooOO====OOoo====ooOO====OOoo====ooOO====OOoo====ooOO====",
"OOoo====ooOO====OOoo====ooOO====OOoo====ooOO====OOoo====ooOO====",
"**==oooo==**oooo**==oooo==**oooo**==oooo==**oooo**==oooo==**oooo",
"**==oooo==**oooo**==oooo==**oooo**==oooo==**oooo**==oooo==**oooo",
"==**oooo**==oooo==**oooo**==oooo==**oooo**==oooo==**oooo**==oooo",
"==**oooo**==oooo==**oooo**==oooo==**oooo**==oooo==**oooo**==oooo",
"oooo****oooo****oooo****oooo****oooo****oooo****oooo****oooo****",
"oooo****oooo****oooo****oooo****oooo****oooo****oooo****oooo****",
"oooo****oooo****oooo****oooo****oooo****oooo****oooo****oooo****",
"oooo****oooo****oooo****oooo****oooo****oooo****oooo****oooo****",
"**&&oooo&&**oooo**&&oooo&&**oooo**&&oooo&&**oooo**&&oooo&&**oooo",
"**&&oooo&&**oooo**&&oooo&&**oooo**&&oooo&&**oooo**&&oooo&&**oooo",
"&&**oooo**&&oooo&&**oooo**&&oooo&&**oooo**&&oooo&&**oooo**&&oooo",
"&&**oooo**&&oooo&&**oooo**&&oooo&&**oooo**&&oooo&&**oooo**&&oooo",
"XXoo&&%%ooXX%%&&XXoo&&%%ooXX%%&&XXoo&&%%ooXX%%&&XXoo&&%%ooXX%%&&",
"XXoo&&%%ooXX%%&&XXoo&&%%ooXX%%&&XXoo&&%%ooXX%%&&XXoo&&%%ooXX%%&&",
"ooXX%%&&XXoo&&%%ooXX%%&&XXoo&&%%ooXX%%&&XXoo&&%%ooXX%%&&XXoo&&%%",
"ooXX%%&&XXoo&&%%ooXX%%&&XXoo&&%%ooXX%%&&XXoo&&%%ooXX%%&&XXoo&&%%",
"%%$$XXXX$$%%XXXX%%$$XXXX$$%%XXXX%%$$XXXX$$%%XXXX%%$$XXXX$$%%XXXX",
"%%$$XXXX$$%%XXXX%%$$XXXX$$%%XXXX%%$$XXXX$$%%XXXX%%$$XXXX$$%%XXXX",
"$$%%XXXX%%$$XXXX$$%%XXXX%%$$XXXX$$%%XXXX%%$$XXXX$$%%XXXX%%$$XXXX",
"$$%%XXXX%%$$XXXX$$%%XXXX%%$$XXXX$$%%XXXX%%$$XXXX$$%%XXXX%%$$XXXX",
"XXXX@@##XXXX@@@@XXXX@@@@XXXX@@@@XXXX@@@@XXXX@@@@XXXX@@@@XXXX@@@@",
"XXXX@@##XXXX@@@@XXXX@@@@XXXX@@@@XXXX@@@@XXXX@@@@XXXX@@@@XXXX@@@@",
"XXXX@@@@XXXX@@@@XXXX@@@@XXXX@@@@XXXX@@@@XXXX@@@@XXXX@@@@XXXX@@@@",
"XXXX@@@@XXXX@@@@XXXX@@@@XXXX@@@@XXXX@@@@XXXX@@@@XXXX@@@@XXXX@@@@",
"@@@@XXXX@@@@XXXX@@@@XXXX@@@@XXXX@@@@XXXX@@@@XXXX@@@@XXXX@@@@XXXX",
"@@@@XXXX@@@@XXXX@@@@XXXX@@@@XXXX@@@@XXXX@@@@XXXX@@@@XXXX@@@@XXXX",
"@@@@XXXX@@@@XXXX@@@@XXXX@@@@XXXX@@@@XXXX@@@@XXXX@@@@XXXX@@@@XXXX",
"@@@@XXXX@@@@XXXX@@@@XXXX@@@@XXXX@@@@XXXX@@@@XXXX@@@@XXXX@@@@XXXX",
"..XX@@@@XX..@@@@..XX@@@@XX..@@@@..XX@@@@XX..@@@@..XX@@@@XX..@@@@",
"..XX@@@@XX..@@@@..XX@@@@XX..@@@@..XX@@@@XX..@@@@..XX@@@@XX..@@@@",
"XX..@@@@..XX@@@@XX..@@@@..XX@@@@XX..@@@@..XX@@@@XX..@@@@..XX@@@@",
"XX..@@@@..XX@@@@XX..@@@@..XX@@@@XX..@@@@..XX@@@@XX..@@@@..XX@@@@",
"@@++....++@@....@@++....++@@....@@++....++@@....@@++....++@@....",
"@@++....++@@....@@++....++@@....@@++....++@@....@@++....++@@....",
"++@@....@@++....++@@....@@++....++@@....@@++....++@@....@@++....",
"++@@....@@++....++@@....@@++....++@@....@@++....++@@....@@++....",
"....++OO....OO++....++OO....OO++....++OO....OO++....++OO....OO++",
"....++OO....OO++....++OO....OO++....++OO....OO++....++OO....OO++",
"....OO++....++OO....OO++....++OO....OO++....++OO....OO++....++OO",
"....OO++....++OO....OO++....++OO....OO++....++OO....OO++....++OO",
"OOoo....ooOO....OOoo....ooOO....OOoo....ooOO....OOoo....ooOO....",
"OOoo....ooOO....OOoo....ooOO....OOoo....ooOO....OOoo....ooOO....",
"ooOO....OOoo....ooOO....OOoo....ooOO....OOoo....ooOO....OOoo....",
"ooOO....OOoo....ooOO....OOoo....ooOO....OOoo....ooOO....OOoo....",
"  ..ooXX..  XXoo  ..ooXX..  XXoo  ..ooXX..  XXoo  ..ooXX..  XXoo",
"  ..ooXX..  XXoo  ..ooXX..  XXoo  ..ooXX..  XXoo  ..ooXX..  XXoo",
"..  XXoo  ..ooXX..  XXoo  ..ooXX..  XXoo  ..ooXX..  XXoo  ..ooXX",
"..  XXoo  ..ooXX..  XXoo  ..ooXX..  XXoo  ..ooXX..  XXoo  ..ooXX",
"XX..    ..XX    XX..    ..XX    XX..    ..XX    XX..    ..XX    ",
"XX..    ..XX    XX..    ..XX    XX..    ..XX    XX..    ..XX    ",
"..XX    XX..    ..XX    XX..    ..XX    XX..    ..XX    XX..    ",
"..XX    XX..    ..XX    XX..    ..XX    XX..    ..XX    XX..    ",
"    ....    ....    ....    ....    ....    ....    ....    ....",
"    ....    ....    ....    ....    ....    ....    ....    ....",
"    ....    ....    ....    ....    ....    ....    ....    ....",
"    ....    ....    ....    ....    ....    ....    ....    ....",
"....    ....    ....    ....    ....    ....    ....    ....    ",
"....    ....    ....    ....    ....    ....    ....    ....    ",
"....    ....    ....    ....    ....    ....    ....    ....    ",
"....    ....    ....    ....    ....    ....    ....    ....    "
};
