/* XPM */
static char *_315e9758bc84510cf711f999501b175kGc38ks03Ll0rXPL[] = {
/* columns rows colors chars-per-pixel */
"64 64 13 1 ",
"  c black",
". c #002600",
"X c #005900",
"o c #008C00",
"O c #00BF00",
"+ c #00F200",
"@ c green",
"# c #0DFF0D",
"$ c #40FF40",
"% c #73FF73",
"& c #A6FFA6",
"* c #D9FFD9",
"= c white",
/* pixels */
"ooOO====OOoo====ooOO====OOoo====ooOO====OOoo====ooOO====OOoo====",
"ooOO====OOoo====ooOO====OOoo====ooOO====OOoo====ooOO====OOoo====",
"OOoo====ooOO====OOoo====ooOO====OOoo====ooOO====OOoo====ooOO====",
"OOoo====ooOO====OOoo====ooOO====OOoo====ooOO====OOoo====ooOO====",
"**==oooo==**oooo**==oooo==**oooo**==oooo==**oooo**==oooo==**oooo",
"**==oooo==**oooo**==oooo==**oooo**==oooo==**oooo**==oooo==**oooo",
"==**oooo**==oooo==**oooo**==oooo==**oooo**==oooo==**oooo**==oooo",
"==**oooo**==oooo==**oooo**==oooo==**oooo**==oooo==**oooo**==oooo",
"oooo****oooo****oooo****oooo****oooo****oooo****oooo****oooo****",
"oooo****oooo****oooo****oooo****oooo****oooo****oooo****oooo****",
"oooo****oooo****oooo****oooo****oooo****oooo****oooo****oooo****",
"oooo****oooo****oooo****oooo****oooo****oooo****oooo****oooo****",
"**&&oooo&&**oooo**&&oooo&&**oooo**&&oooo&&**oooo**&&oooo&&**oooo",
"**&&oooo&&**oooo**&&oooo&&**oooo**&&oooo&&**oooo**&&oooo&&**oooo",
"&&**oooo**&&oooo&&**oooo**&&oooo&&**oooo**&&oooo&&**oooo**&&oooo",
"&&**oooo**&&oooo&&**oooo**&&oooo&&**oooo**&&oooo&&**oooo**&&oooo",
"XXoo&&%%ooXX%%&&XXoo&&%%ooXX%%&&XXoo&&%%ooXX%%&&XXoo&&%%ooXX%%&&",
"XXoo&&%%ooXX%%&&XXoo&&%%ooXX%%&&XXoo&&%%ooXX%%&&XXoo&&%%ooXX%%&&",
"ooXX%%&&XXoo&&%%ooXX%%&&XXoo&&%%ooXX%%&&XXoo&&%%ooXX%%&&XXoo&&%%",
"ooXX%%&&XXoo&&%%ooXX%%&&XXoo&&%%ooXX%%&&XXoo&&%%ooXX%%&&XXoo&&%%",
"%%$$XXXX$$%%XXXX%%$$XXXX$$%%XXXX%%$$XXXX$$%%XXXX%%$$XXXX$$%%XXXX",
"%%$$XXXX$$%%XXXX%%$$XXXX$$%%XXXX%%$$XXXX$$%%XXXX%%$$XXXX$$%%XXXX",
"$$%%XXXX%%$$XXXX$$%%XXXX%%$$XXXX$$%%XXXX%%$$XXXX$$%%XXXX%%$$XXXX",
"$$%%XXXX%%$$XXXX$$%%XXXX%%$$XXXX$$%%XXXX%%$$XXXX$$%%XXXX%%$$XXXX",
"XXXX@@##XXXX@@@@XXXX@@@@XXXX@@@@XXXX@@@@XXXX@@@@XXXX@@@@XXXX@@@@",
"XXXX@@##XXXX@@@@XXXX@@@@XXXX@@@@XXXX@@@@XXXX@@@@XXXX@@@@XXXX@@@@",
"XXXX@@@@XXXX@@@@XXXX@@@@XXXX@@@@XXXX@@@@XXXX@@@@XXXX@@@@XXXX@@@@",
"XXXX@@@@XXXX@@@@XXXX@@@@XXXX@@@@XXXX@@@@XXXX@@@@XXXX@@@@XXXX@@@@",
"@@@@XXXX@@@@XXXX@@@@XXXX@@@@XXXX@@@@XXXX@@@@XXXX@@@@XXXX@@@@XXXX",
"@@@@XXXX@@@@XXXX@@@@XXXX@@@@XXXX@@@@XXXX@@@@XXXX@@@@XXXX@@@@XXXX",
"@@@@XXXX@@@@XXXX@@@@XXXX@@@@XXXX@@@@XXXX@@@@XXXX@@@@XXXX@@@@XXXX",
"@@@@XXXX@@@@XXXX@@@@XXXX@@@@XXXX@@@@XXXX@@@@XXXX@@@@XXXX@@@@XXXX",
"..XX@@@@XX..@@@@..XX@@@@XX..@@@@..XX@@@@XX..@@@@..XX@@@@XX..@@@@",
"..XX@@@@XX..@@@@..XX@@@@XX..@@@@..XX@@@@XX..@@@@..XX@@@@XX..@@@@",
"XX..@@@@..XX@@@@XX..@@@@..XX@@@@XX..@@@@..XX@@@@XX..@@@@..XX@@@@",
"XX..@@@@..XX@@@@XX..@@@@..XX@@@@XX..@@@@..XX@@@@XX..@@@@..XX@@@@",
"@@++....++@@....@@++....++@@....@@++....++@@....@@++....++@@....",
"@@++....++@@....@@++....++@@....@@++....++@@....@@++....++@@....",
"++@@....@@++....++@@....@@++....++@@....@@++....++@@....@@++....",
"++@@....@@++....++@@....@@++....++@@....@@++....++@@....@@++....",
"....++OO....OO++....++OO....OO++....++OO....OO++....++OO....OO++",
"....++OO....OO++....++OO....OO++....++OO....OO++....++OO....OO++",
"....OO++....++OO....OO++....++OO....OO++....++OO....OO++....++OO",
"....OO++....++OO....OO++....++OO....OO++....++OO....OO++....++OO",
"OOoo....ooOO....OOoo....ooOO....OOoo....ooOO....OOoo....ooOO....",
"OOoo....ooOO....OOoo....ooOO....OOoo....ooOO....OOoo....ooOO....",
"ooOO....OOoo....ooOO....OOoo....ooOO....OOoo....ooOO....OOoo....",
"ooOO....OOoo....ooOO....OOoo....ooOO....OOoo....ooOO....OOoo....",
"  ..ooXX..  XXoo  ..ooXX..  XXoo  ..ooXX..  XXoo  ..ooXX..  XXoo",
"  ..ooXX..  XXoo  ..ooXX..  XXoo  ..ooXX..  XXoo  ..ooXX..  XXoo",
"..  XXoo  ..ooXX..  XXoo  ..ooXX..  XXoo  ..ooXX..  XXoo  ..ooXX",
"..  XXoo  ..ooXX..  XXoo  ..ooXX..  XXoo  ..ooXX..  XXoo  ..ooXX",
"XX..    ..XX    XX..    ..XX    XX..    ..XX    XX..    ..XX    ",
"XX..    ..XX    XX..    ..XX    XX..    ..XX    XX..    ..XX    ",
"..XX    XX..    ..XX    XX..    ..XX    XX..    ..XX    XX..    ",
"..XX    XX..    ..XX    XX..    ..XX    XX..    ..XX    XX..    ",
"    ....    ....    ....    ....    ....    ....    ....    ....",
"    ....    ....    ....    ....    ....    ....    ....    ....",
"    ....    ....    ....    ....    ....    ....    ....    ....",
"    ....    ....    ....    ....    ....    ....    ....    ....",
"....    ....    ....    ....    ....    ....    ....    ....    ",
"....    ....    ....    ....    ....    ....    ....    ....    ",
"....    ....    ....    ....    ....    ....    ....    ....    ",
"....    ....    ....    ....    ....    ....    ....    ....    "
};
