/* XPM */
static char *faa88b4141ec4d74f6792a358c794b693uVELOSMG3TknpV9[] = {
/* columns rows colors chars-per-pixel */
"64 64 13 1 ",
"  c black",
". c #260026",
"X c #590059",
"o c #8C008C",
"O c #BF00BF",
"+ c #F200F2",
"@ c magenta",
"# c #FF0DFF",
"$ c #FF40FF",
"% c #FF73FF",
"& c #FFA6FF",
"* c #FFD9FF",
"= c white",
/* pixels */
"ooOO====OOoo====ooOO====OOoo====ooOO====OOoo====ooOO====OOoo====",
"ooOO====OOoo====ooOO====OOoo====ooOO====OOoo====ooOO====OOoo====",
"OOoo====ooOO====OOoo====ooOO====OOoo====ooOO====OOoo====ooOO====",
"OOoo====ooOO====OOoo====ooOO====OOoo====ooOO====OOoo====ooOO====",
"**==oooo==**oooo**==oooo==**oooo**==oooo==**oooo**==oooo==**oooo",
"**==oooo==**oooo**==oooo==**oooo**==oooo==**oooo**==oooo==**oooo",
"==**oooo**==oooo==**oooo**==oooo==**oooo**==oooo==**oooo**==oooo",
"==**oooo**==oooo==**oooo**==oooo==**oooo**==oooo==**oooo**==oooo",
"oooo****oooo****oooo****oooo****oooo****oooo****oooo****oooo****",
"oooo****oooo****oooo****oooo****oooo****oooo****oooo****oooo****",
"oooo****oooo****oooo****oooo****oooo****oooo****oooo****oooo****",
"oooo****oooo****oooo****oooo****oooo****oooo****oooo****oooo****",
"**&&oooo&&**oooo**&&oooo&&**oooo**&&oooo&&**oooo**&&oooo&&**oooo",
"**&&oooo&&**oooo**&&oooo&&**oooo**&&oooo&&**oooo**&&oooo&&**oooo",
"&&**oooo**&&oooo&&**oooo**&&oooo&&**oooo**&&oooo&&**oooo**&&oooo",
"&&**oooo**&&oooo&&**oooo**&&oooo&&**oooo**&&oooo&&**oooo**&&oooo",
"XXoo&&%%ooXX%%&&XXoo&&%%ooXX%%&&XXoo&&%%ooXX%%&&XXoo&&%%ooXX%%&&",
"XXoo&&%%ooXX%%&&XXoo&&%%ooXX%%&&XXoo&&%%ooXX%%&&XXoo&&%%ooXX%%&&",
"ooXX%%&&XXoo&&%%ooXX%%&&XXoo&&%%ooXX%%&&XXoo&&%%ooXX%%&&XXoo&&%%",
"ooXX%%&&XXoo&&%%ooXX%%&&XXoo&&%%ooXX%%&&XXoo&&%%ooXX%%&&XXoo&&%%",
"%%$$XXXX$$%%XXXX%%$$XXXX$$%%XXXX%%$$XXXX$$%%XXXX%%$$XXXX$$%%XXXX",
"%%$$XXXX$$%%XXXX%%$$XXXX$$%%XXXX%%$$XXXX$$%%XXXX%%$$XXXX$$%%XXXX",
"$$%%XXXX%%$$XXXX$$%%XXXX%%$$XXXX$$%%XXXX%%$$XXXX$$%%XXXX%%$$XXXX",
"$$%%XXXX%%$$XXXX$$%%XXXX%%$$XXXX$$%%XXXX%%$$XXXX$$%%XXXX%%$$XXXX",
"XXXX@@##XXXX@@@@XXXX@@@@XXXX@@@@XXXX@@@@XXXX@@@@XXXX@@@@XXXX@@@@",
"XXXX@@##XXXX@@@@XXXX@@@@XXXX@@@@XXXX@@@@XXXX@@@@XXXX@@@@XXXX@@@@",
"XXXX@@@@XXXX@@@@XXXX@@@@XXXX@@@@XXXX@@@@XXXX@@@@XXXX@@@@XXXX@@@@",
"XXXX@@@@XXXX@@@@XXXX@@@@XXXX@@@@XXXX@@@@XXXX@@@@XXXX@@@@XXXX@@@@",
"@@@@XXXX@@@@XXXX@@@@XXXX@@@@XXXX@@@@XXXX@@@@XXXX@@@@XXXX@@@@XXXX",
"@@@@XXXX@@@@XXXX@@@@XXXX@@@@XXXX@@@@XXXX@@@@XXXX@@@@XXXX@@@@XXXX",
"@@@@XXXX@@@@XXXX@@@@XXXX@@@@XXXX@@@@XXXX@@@@XXXX@@@@XXXX@@@@XXXX",
"@@@@XXXX@@@@XXXX@@@@XXXX@@@@XXXX@@@@XXXX@@@@XXXX@@@@XXXX@@@@XXXX",
"..XX@@@@XX..@@@@..XX@@@@XX..@@@@..XX@@@@XX..@@@@..XX@@@@XX..@@@@",
"..XX@@@@XX..@@@@..XX@@@@XX..@@@@..XX@@@@XX..@@@@..XX@@@@XX..@@@@",
"XX..@@@@..XX@@@@XX..@@@@..XX@@@@XX..@@@@..XX@@@@XX..@@@@..XX@@@@",
"XX..@@@@..XX@@@@XX..@@@@..XX@@@@XX..@@@@..XX@@@@XX..@@@@..XX@@@@",
"@@++....++@@....@@++....++@@....@@++....++@@....@@++....++@@....",
"@@++....++@@....@@++....++@@....@@++....++@@....@@++....++@@....",
"++@@....@@++....++@@....@@++....++@@....@@++....++@@....@@++....",
"++@@....@@++....++@@....@@++....++@@....@@++....++@@....@@++....",
"....++OO....OO++....++OO....OO++....++OO....OO++....++OO....OO++",
"....++OO....OO++....++OO....OO++....++OO....OO++....++OO....OO++",
"....OO++....++OO....OO++....++OO....OO++....++OO....OO++....++OO",
"....OO++....++OO....OO++....++OO....OO++....++OO....OO++....++OO",
"OOoo....ooOO....OOoo....ooOO....OOoo....ooOO....OOoo....ooOO....",
"OOoo....ooOO....OOoo....ooOO....OOoo....ooOO....OOoo....ooOO....",
"ooOO....OOoo....ooOO....OOoo....ooOO....OOoo....ooOO....OOoo....",
"ooOO....OOoo....ooOO....OOoo....ooOO....OOoo....ooOO....OOoo....",
"  ..ooXX..  XXoo  ..ooXX..  XXoo  ..ooXX..  XXoo  ..ooXX..  XXoo",
"  ..ooXX..  XXoo  ..ooXX..  XXoo  ..ooXX..  XXoo  ..ooXX..  XXoo",
"..  XXoo  ..ooXX..  XXoo  ..ooXX..  XXoo  ..ooXX..  XXoo  ..ooXX",
"..  XXoo  ..ooXX..  XXoo  ..ooXX..  XXoo  ..ooXX..  XXoo  ..ooXX",
"XX..    ..XX    XX..    ..XX    XX..    ..XX    XX..    ..XX    ",
"XX..    ..XX    XX..    ..XX    XX..    ..XX    XX..    ..XX    ",
"..XX    XX..    ..XX    XX..    ..XX    XX..    ..XX    XX..    ",
"..XX    XX..    ..XX    XX..    ..XX    XX..    ..XX    XX..    ",
"    ....    ....    ....    ....    ....    ....    ....    ....",
"    ....    ....    ....    ....    ....    ....    ....    ....",
"    ....    ....    ....    ....    ....    ....    ....    ....",
"    ....    ....    ....    ....    ....    ....    ....    ....",
"....    ....    ....    ....    ....    ....    ....    ....    ",
"....    ....    ....    ....    ....    ....    ....    ....    ",
"....    ....    ....    ....    ....    ....    ....    ....    ",
"....    ....    ....    ....    ....    ....    ....    ....    "
};
